<svg width="500" height="500" viewBox="0 0 500 500" fill="none" xmlns="http://www.w3.org/2000/svg">
<path d="M155.46 48.05H217.18V112.39H155.46V48.05Z" fill="#494747"/>
<path d="M159.64 48.05H221.36V112.39H159.64V48.05Z" fill="#494747"/>
<path d="M159.62 112.41H221.38V48H159.62V112.41ZM221.34 112.41H159.65V48.07H221.34V112.41Z" fill="#FEF4CF"/>
<path d="M167.93 56.7H213.06V103.74H167.93V56.7Z" fill="#494747"/>
<path d="M213.06 104.05C213.382 104.525 213.758 104.961 214.18 105.35C214.9 106.11 215.91 107.14 217.05 108.26C218.19 109.38 219.22 110.37 219.99 111.08C220.384 111.492 220.823 111.857 221.3 112.17C220.982 111.698 220.61 111.265 220.19 110.88C219.47 110.12 218.45 109.08 217.31 107.96C216.17 106.84 215.13 105.84 214.36 105.13C213.969 104.721 213.533 104.359 213.06 104.05Z" fill="#FEF4CF"/>
<path d="M167.93 103.94C167.457 104.258 167.024 104.63 166.64 105.05C165.88 105.77 164.85 106.79 163.73 107.92C162.61 109.05 161.62 110.1 160.91 110.92C160.496 111.309 160.13 111.745 159.82 112.22C160.294 111.908 160.727 111.539 161.11 111.12C161.87 110.39 162.9 109.38 164.02 108.24C165.14 107.1 166.14 106.06 166.85 105.24C167.263 104.854 167.626 104.417 167.93 103.94Z" fill="#FEF4CF"/>
<path d="M168.06 56.82C167.732 56.3522 167.357 55.9199 166.94 55.53C166.22 54.77 165.21 53.74 164.07 52.62C162.93 51.5 161.9 50.5 161.13 49.8C160.739 49.3847 160.299 49.0186 159.82 48.71C160.137 49.1824 160.51 49.6155 160.93 50C161.65 50.76 162.67 51.79 163.8 52.91C164.93 54.03 165.99 55.03 166.8 55.74C167.174 56.15 167.597 56.5127 168.06 56.82Z" fill="#FEF4CF"/>
<path d="M213.19 56.94C213.661 56.6165 214.093 56.2408 214.48 55.82C215.24 55.1 216.27 54.09 217.39 52.96C218.51 51.83 219.5 50.78 220.21 49.96C220.625 49.5694 220.991 49.1295 221.3 48.65C220.821 48.9826 220.385 49.3721 220 49.81C219.24 50.53 218.21 51.55 217.08 52.69C215.95 53.83 214.96 54.87 214.26 55.69C213.851 56.0586 213.491 56.4788 213.19 56.94Z" fill="#FEF4CF"/>
<path d="M168.06 103.74C168.06 103.74 168.06 103.66 168.06 103.51C168.06 103.36 168.06 103.14 168.06 102.86C168.06 102.27 168.06 101.42 168.06 100.32C168.06 98.09 168.06 94.85 168.06 90.73C168.06 82.49 168.11 70.73 168.15 56.73L167.98 56.9H212.98L212.78 56.7C212.78 73.96 212.78 90.12 212.78 103.7L212.95 103.53L180.37 103.62H171.21H168.79H171.18H180.3L212.99 103.71H213.16V103.54C213.16 89.92 213.16 73.76 213.16 56.54V56.34H212.96H167.96H167.78V56.52C167.78 70.62 167.85 82.39 167.87 90.66C167.87 94.76 167.87 97.99 167.87 100.21C167.87 101.3 167.87 102.13 167.87 102.71C167.87 102.99 167.87 103.2 167.87 103.35C167.888 103.497 167.955 103.635 168.06 103.74Z" fill="#FEF4CF"/>
<path d="M182.97 72.69H198.03V87.75H182.97V72.69Z" fill="#FEF4CF"/>
<path d="M367.741 74.63H454.521V165.09H367.741V74.63Z" fill="#494747"/>
<path d="M373.62 74.63H460.4V165.09H373.62V74.63Z" fill="#494747"/>
<path d="M373.59 165.11H460.42V74.6H373.59V165.11ZM460.37 165.06H373.64V74.65H460.37V165.06Z" fill="#FEF4CF"/>
<path d="M385.28 86.79H448.73V152.93H385.28V86.79Z" fill="#494747"/>
<path d="M448.73 153.37C449.18 154.037 449.707 154.648 450.3 155.19C451.3 156.26 452.73 157.7 454.3 159.28C455.87 160.86 457.36 162.28 458.44 163.28C458.988 163.864 459.606 164.378 460.28 164.81C459.837 164.153 459.324 163.546 458.75 163C457.75 161.93 456.31 160.48 454.75 158.9C453.19 157.32 451.68 155.9 450.6 154.9C450.042 154.315 449.414 153.801 448.73 153.37Z" fill="#FEF4CF"/>
<path d="M385.28 153.2C384.617 153.654 384.006 154.18 383.46 154.77C382.39 155.77 380.95 157.21 379.37 158.77C377.79 160.33 376.37 161.84 375.37 162.92C374.788 163.466 374.274 164.08 373.84 164.75C374.505 164.305 375.112 163.781 375.65 163.19C376.72 162.19 378.17 160.75 379.75 159.19C381.33 157.63 382.75 156.12 383.75 155.04C384.336 154.494 384.85 153.876 385.28 153.2Z" fill="#FEF4CF"/>
<path d="M385.46 87C385.006 86.3364 384.48 85.726 383.89 85.18C382.89 84.11 381.45 82.67 379.89 81.09C378.33 79.51 376.82 78.09 375.74 77.09C375.194 76.5075 374.58 75.9937 373.91 75.56C374.355 76.2243 374.879 76.8321 375.47 77.37C376.47 78.44 377.91 79.89 379.47 81.47C381.03 83.05 382.54 84.47 383.62 85.47C384.166 86.0558 384.784 86.5699 385.46 87Z" fill="#FEF4CF"/>
<path d="M448.9 87.13C449.566 86.6796 450.177 86.1526 450.72 85.56C451.79 84.56 453.24 83.12 454.81 81.56C456.38 80 457.81 78.49 458.81 77.41C459.389 76.861 459.902 76.2469 460.34 75.58C459.671 76.0186 459.062 76.543 458.53 77.14C457.46 78.14 456.01 79.58 454.43 81.14C452.85 82.7 451.43 84.21 450.43 85.29C449.848 85.8399 449.334 86.4576 448.9 87.13Z" fill="#FEF4CF"/>
<path d="M385.46 152.93C385.46 152.93 385.46 152.81 385.46 152.61C385.46 152.41 385.46 152.08 385.46 151.68C385.46 150.847 385.46 149.657 385.46 148.11C385.46 144.98 385.46 140.42 385.53 134.63C385.53 123.05 385.6 106.55 385.65 86.79L385.41 87.03H448.67L448.39 86.75C448.39 111.02 448.39 133.75 448.39 152.89L448.63 152.65L402.82 152.77L389.95 152.83H386.54H385.66C385.56 152.821 385.46 152.821 385.36 152.83H386.49H389.85L402.76 153L448.76 153.13H449V152.89C449 133.73 449 111.02 449 86.75V86.47H448.71H385.45H385.2V86.72C385.25 106.54 385.3 123.1 385.33 134.72C385.33 140.48 385.33 145.02 385.39 148.14C385.39 149.67 385.39 150.85 385.39 151.67C385.39 152.05 385.39 152.34 385.39 152.56C385.4 152.686 385.423 152.81 385.46 152.93Z" fill="#FEF4CF"/>
<path d="M406.42 109.27H427.59V130.44H406.42V109.27Z" fill="#FEF4CF"/>
<path d="M42.9497 100.56H133.68V195.14H42.9497V100.56Z" fill="#494747"/>
<path d="M49.1001 100.56H139.83V195.14H49.1001V100.56Z" fill="#494747"/>
<path d="M49.0596 195.17H139.85V100.53H49.0596V195.17ZM139.8 195.11H49.1196V100.59H139.8V195.11Z" fill="#FEF4CF"/>
<path d="M61.2899 113.27H127.63V182.42H61.2899V113.27Z" fill="#494747"/>
<path d="M127.63 182.89C128.105 183.582 128.655 184.22 129.27 184.79C130.33 185.91 131.81 187.42 133.48 189.07C135.15 190.72 136.69 192.17 137.82 193.21C138.394 193.814 139.035 194.351 139.73 194.81C139.273 194.114 138.729 193.479 138.11 192.92C137.05 191.8 135.55 190.28 133.88 188.63C132.21 186.98 130.67 185.52 129.54 184.48C128.969 183.876 128.328 183.343 127.63 182.89Z" fill="#FEF4CF"/>
<path d="M61.29 182.72C60.5967 183.189 59.9593 183.736 59.39 184.35C58.27 185.41 56.75 186.9 55.11 188.57C53.47 190.24 52 191.77 50.96 192.91C50.3564 193.482 49.8227 194.123 49.37 194.82C50.0586 194.352 50.6926 193.809 51.26 193.2C52.38 192.14 53.9 190.64 55.54 188.97C57.18 187.3 58.66 185.76 59.7 184.63C60.3036 184.058 60.8374 183.417 61.29 182.72Z" fill="#FEF4CF"/>
<path d="M61.4697 113.46C60.9984 112.765 60.448 112.128 59.8297 111.56C58.7697 110.44 57.2897 108.92 55.6197 107.28C53.9497 105.64 52.4097 104.17 51.2797 103.13C50.7081 102.526 50.067 101.993 49.3697 101.54C49.8333 102.232 50.3771 102.866 50.9897 103.43C52.0497 104.55 53.5497 106.07 55.2197 107.71C56.8897 109.35 58.4297 110.83 59.5597 111.87C60.1313 112.474 60.7725 113.007 61.4697 113.46Z" fill="#FEF4CF"/>
<path d="M127.81 113.63C128.505 113.159 129.143 112.608 129.71 111.99C130.83 110.93 132.35 109.44 133.99 107.77C135.63 106.1 137.1 104.57 138.14 103.44C138.748 102.869 139.283 102.224 139.73 101.52C139.044 101.994 138.41 102.54 137.84 103.15C136.72 104.21 135.2 105.7 133.56 107.38C131.92 109.06 130.44 110.59 129.4 111.72C128.797 112.292 128.263 112.933 127.81 113.63Z" fill="#FEF4CF"/>
<path d="M61.4695 182.43C61.4774 182.317 61.4774 182.203 61.4695 182.09C61.4695 181.86 61.4695 181.54 61.4695 181.09C61.4695 180.22 61.4695 178.97 61.4695 177.35C61.4695 174.08 61.4696 169.35 61.5396 163.26C61.5396 151.15 61.6096 133.89 61.6696 113.26L61.4095 113.52H127.56L127.27 113.22C127.27 138.61 127.27 162.35 127.27 182.38L127.52 182.13L79.6195 182.25L66.1595 182.32H62.5995H61.6795H61.3595H61.6495H62.5495H66.0595L79.4595 182.38L127.52 182.51H127.77V182.26C127.77 162.26 127.77 138.49 127.77 113.1V113H127.47H61.3195H61.0595V113.25C61.1195 133.98 61.1595 151.25 61.1895 163.44C61.1895 169.44 61.2495 174.22 61.2596 177.44C61.2596 179.04 61.2596 180.27 61.2596 181.12C61.2596 181.52 61.2596 181.83 61.2596 182.06C61.2596 182.29 61.4695 182.43 61.4695 182.43Z" fill="#FEF4CF"/>
<path d="M83.3903 136.78H105.53V158.92H83.3903V136.78Z" fill="#FEF4CF"/>
<path d="M455.81 417.01V463.32H388.08H313.37V417.01H455.81Z" fill="#797677"/>
<path d="M461.79 404.06V417.01H308.4V404.06H388.08H461.79Z" fill="#797677"/>
<path d="M385.09 463.32H313.37V417.01H308.4V404.06H388.08V415.81L385.09 463.32Z" fill="#797677"/>
<path d="M407 424.48H435.89V431.45H407V424.48Z" fill="#FEF4CF"/>
<path d="M402.52 440.17H439.61V454.89H402.52V440.17Z" fill="#FEF4CF"/>
<path d="M255.68 328.57C255.68 328.57 258.02 318.41 267.45 318.92C276.88 319.43 279.17 319.43 283.24 318.92C287.31 318.41 293.63 313.51 295.41 315.03C297.19 316.55 296.2 319.88 292.89 322.82C289.58 325.76 283.89 327.82 283.89 327.82L295.94 329.89C295.94 329.89 306.8 324.09 309.35 325.11C310.085 325.435 310.703 325.977 311.121 326.663C311.539 327.35 311.738 328.148 311.69 328.95C311.69 328.95 316.2 326.95 317.47 328.71C318.74 330.47 319.06 331.71 317.78 332.71C317.78 332.71 318.62 331.88 320.96 332.57C322.96 333.16 322.79 336.85 320.96 337.84L320.34 338.2C320.34 338.2 303.26 348.03 302.74 348.1C299.74 348.5 281.32 347.72 271.84 347.28C270.128 347.2 268.426 347.577 266.908 348.371C265.39 349.165 264.11 350.349 263.2 351.8L247.94 376L230.7 356.1L255.68 328.57Z" fill="#D7A18D"/>
<path d="M286.639 334.13C287.553 334.406 288.485 334.613 289.429 334.75C291.199 335.08 293.679 335.52 296.579 336.01H296.649H296.719L300.579 334.24L309.789 330L312.569 328.68C312.925 328.535 313.26 328.347 313.569 328.12C313.199 328.2 312.84 328.324 312.499 328.49L309.649 329.66L305.459 331.47L300.369 333.79L296.519 335.58H296.669C293.769 335.12 291.269 334.75 289.489 334.5C288.551 334.302 287.598 334.178 286.639 334.13Z" fill="#4C494A"/>
<path d="M290.87 338.66C293.669 339.731 296.071 341.637 297.75 344.12C297.194 342.679 296.263 341.413 295.054 340.453C293.844 339.493 292.399 338.874 290.87 338.66Z" fill="#4C494A"/>
<path d="M271.32 324.42C271.26 324.42 271.21 325.04 270.88 326.04C270.423 327.411 269.624 328.643 268.56 329.62L268.21 329.93L268.67 330.02C270.272 330.325 271.84 330.791 273.35 331.41C275.735 332.392 277.952 333.741 279.92 335.41C281.43 336.7 282.23 337.65 282.3 337.59C282.37 337.53 282.15 337.31 281.8 336.87C281.293 336.26 280.749 335.682 280.17 335.14C278.235 333.342 275.992 331.906 273.55 330.9C272.005 330.267 270.395 329.808 268.75 329.53L268.87 329.93C269.974 328.889 270.764 327.558 271.15 326.09C271.324 325.552 271.382 324.982 271.32 324.42Z" fill="#4C494A"/>
<path d="M282.609 327.3C284.721 328.151 286.927 328.745 289.179 329.07C291.029 329.41 292.719 329.65 293.939 329.77C294.6 329.886 295.272 329.913 295.939 329.85C295.939 329.69 292.939 329.25 289.279 328.56L284.579 327.63C283.938 327.445 283.277 327.335 282.609 327.3Z" fill="#4C494A"/>
<path d="M298.65 340.64C299.622 340.315 300.574 339.931 301.5 339.49C303.25 338.77 305.7 337.84 308.43 336.87C311.16 335.9 313.62 334.97 315.37 334.22C316.337 333.867 317.266 333.415 318.14 332.87C317.152 333.139 316.183 333.473 315.24 333.87L308.24 336.37C305.51 337.37 303.07 338.37 301.35 339.15C300.396 339.542 299.49 340.042 298.65 340.64Z" fill="#4C494A"/>
<path d="M294.31 340.23C296.613 341.287 299.204 341.544 301.67 340.96C301.67 340.81 299.99 340.9 297.98 340.69C295.97 340.48 294.35 340.08 294.31 340.23Z" fill="#4C494A"/>
<path d="M199.28 281.81C199.28 281.81 214.53 290.58 217.72 317.38C219.38 331.38 225.47 357.33 225.47 357.33L238 343.27L256.93 364.93C256.93 364.93 236.48 408.58 224.93 420.48C213.38 432.38 190.47 436.05 190.47 436.05L185.86 363.1L199.28 281.81Z" fill="#797677"/>
<path d="M83.6493 269.76L118.879 263.59L163.789 265.82C163.789 265.82 201.189 281.26 199.279 281.82L206.569 354L188.509 388.88L192.999 463.19H68.9993L75.4693 411.53L83.5793 349.28L68.1893 397.47L65.8593 463.19H31.3593C27.7093 434.57 26.5693 394.81 26.5693 394.81L54.7293 302.81C58.5882 289.999 67.0944 279.093 78.5793 272.23C80.1847 271.243 81.8828 270.416 83.6493 269.76Z" fill="#797677"/>
<path d="M199.68 318.23L199.6 318.6C199.55 318.87 199.48 319.23 199.4 319.69C199.23 320.69 198.98 322.07 198.67 323.87C198.06 327.5 197.18 332.76 196.18 339.27C195.18 345.78 194 353.55 193 362.19C192 370.83 190.91 380.37 190.33 390.41C190.28 391.35 190.23 392.28 190.18 393.14C190.7 412.63 191.3 430.14 191.85 442.78C192.13 449.09 192.38 454.19 192.6 457.71C192.713 459.45 192.803 460.783 192.87 461.71C192.87 462.15 192.93 462.5 192.95 462.76C192.941 462.88 192.941 463 192.95 463.12C192.961 463 192.961 462.88 192.95 462.76C192.95 462.49 192.95 462.15 192.95 461.7C192.95 460.75 192.85 459.39 192.77 457.7C192.64 454.15 192.44 449.06 192.19 442.76C191.74 430.12 191.19 412.61 190.68 393.13C190.68 392.27 190.78 391.34 190.83 390.4C191.41 380.4 192.42 370.85 193.46 362.21C194.5 353.57 195.6 345.8 196.56 339.29C197.52 332.78 198.34 327.53 198.89 323.86L199.52 319.66C199.58 319.2 199.63 318.84 199.67 318.57C199.684 318.457 199.687 318.343 199.68 318.23Z" fill="#263238"/>
<path d="M91.5891 322.15C91.6509 322.004 91.6881 321.848 91.6991 321.69C91.7591 321.32 91.8391 320.88 91.9291 320.35C91.9291 320.05 92.0191 319.73 92.0691 319.35C92.1191 318.97 92.1291 318.61 92.1591 318.19C92.2425 317.246 92.2726 316.298 92.2491 315.35C92.2491 314.82 92.2491 314.27 92.2491 313.7C92.2491 313.13 92.1491 312.53 92.0891 311.91C91.9626 310.596 91.7623 309.291 91.4891 308C90.842 305.04 89.8834 302.158 88.6291 299.4C87.3168 296.669 85.7249 294.082 83.8791 291.68C83.0594 290.634 82.1848 289.633 81.2591 288.68C80.8291 288.24 80.4291 287.8 79.9991 287.41L78.7491 286.32C78.0389 285.696 77.2944 285.111 76.5191 284.57C76.1791 284.32 75.8691 284.08 75.5191 283.89L74.6891 283.38L73.5191 282.69C73.3861 282.607 73.2455 282.537 73.0991 282.48C73.0991 282.48 73.2091 282.6 73.4691 282.78L74.5691 283.55L75.3791 284.09C75.6691 284.3 75.9691 284.55 76.2891 284.8C77.0433 285.362 77.7676 285.963 78.4591 286.6L79.6691 287.7C80.0891 288.09 80.4791 288.54 80.8991 288.98C81.8042 289.932 82.6555 290.933 83.4491 291.98C87.1393 296.733 89.719 302.251 90.9991 308.13C91.2805 309.404 91.4942 310.693 91.6391 311.99C91.7091 312.6 91.7991 313.18 91.8291 313.75C91.8591 314.32 91.8791 314.86 91.8991 315.39C91.9791 316.39 91.8991 317.39 91.8991 318.2C91.8991 318.62 91.8991 319 91.8991 319.36C91.8991 319.72 91.8291 320.03 91.7891 320.36C91.7391 320.89 91.6991 321.36 91.6691 321.7C91.6232 321.846 91.5963 321.997 91.5891 322.15Z" fill="#263238"/>
<path d="M68.2292 397.47C68.3302 397.28 68.4074 397.079 68.4592 396.87C68.6092 396.42 68.7992 395.87 69.0292 395.13C69.5192 393.56 70.1992 391.39 71.0292 388.73C72.7192 383.32 75.0292 375.84 77.7192 367.62C80.4092 359.4 82.8792 351.96 84.8792 346.67C85.8792 344.04 86.9292 341.98 87.5492 340.52C87.8592 339.79 88.0992 339.22 88.2492 338.83C88.3306 338.632 88.3975 338.428 88.4492 338.22C88.3291 338.399 88.2285 338.59 88.1492 338.79L87.3692 340.44C86.6892 341.87 85.6292 343.9 84.5392 346.53C82.4392 351.82 79.9092 359.23 77.2292 367.46C74.5492 375.69 72.2792 383.18 70.6692 388.62C69.8692 391.34 69.2392 393.55 68.8192 395.08C68.6292 395.8 68.4692 396.38 68.3492 396.84C68.286 397.045 68.2457 397.256 68.2292 397.47Z" fill="#263238"/>
<path d="M42.2394 395.17C42.2394 395.26 43.5794 394.88 45.7494 394.54C48.5727 394.112 51.4391 394.045 54.2794 394.34C57.117 394.649 59.9032 395.321 62.5694 396.34C64.5694 397.14 65.8094 397.8 65.8594 397.72C65.6184 397.505 65.3493 397.323 65.0594 397.18C64.3005 396.74 63.5157 396.346 62.7094 396C60.0434 394.857 57.2227 394.116 54.3394 393.8C51.4548 393.483 48.539 393.601 45.6894 394.15C44.8264 394.308 43.9746 394.521 43.1394 394.79C42.8232 394.874 42.5203 395.002 42.2394 395.17Z" fill="#263238"/>
<path d="M198.22 390.08C198.56 389.638 198.871 389.173 199.15 388.69C199.76 387.8 200.66 386.53 201.87 385.04C204.26 382.04 207.77 378.04 211.67 373.61C215.57 369.18 219.1 365.21 221.59 362.26C222.83 360.79 223.83 359.59 224.5 358.74C224.87 358.322 225.204 357.873 225.5 357.4C225.08 357.767 224.695 358.172 224.35 358.61L221.35 362.02L211.35 373.26C207.45 377.67 203.98 381.72 201.65 384.81C200.716 386.019 199.848 387.277 199.05 388.58C198.77 389.04 198.59 389.42 198.46 389.68C198.33 389.94 198.2 390.07 198.22 390.08Z" fill="#263238"/>
<g opacity="0.3">
<path d="M191.33 436.05C190.77 415.85 189.72 397.23 191.55 377.29C192.37 394.99 198.81 415.7 205.3 432.19L191.33 436.05Z" fill="black"/>
</g>
<g opacity="0.3">
<path d="M83.6197 349.28C83.6197 349.28 89.3697 336.42 88.9797 336.42C89.5497 360.48 84.6497 388.1 75.6497 410.42L83.6197 349.28Z" fill="black"/>
</g>
<path d="M99.4296 417.48C99.6504 417.641 99.8809 417.788 100.12 417.92L102.12 419.09C103.87 420.09 106.4 421.61 109.49 423.52C112.58 425.43 116.27 427.68 120.49 430.05C125.015 432.654 129.744 434.888 134.63 436.73C139.532 438.61 144.712 439.664 149.96 439.85C152.26 439.857 154.549 439.52 156.75 438.85C158.671 438.262 160.465 437.319 162.04 436.07C164.361 434.288 166.033 431.794 166.8 428.97C166.988 428.207 167.092 427.426 167.11 426.64C167.114 426.369 167.098 426.098 167.06 425.83C167.014 426.873 166.86 427.909 166.6 428.92C165.773 431.658 164.099 434.063 161.82 435.79C160.263 436.985 158.501 437.883 156.62 438.44C154.456 439.064 152.211 439.363 149.96 439.33C144.774 439.111 139.657 438.054 134.81 436.2C129.95 434.363 125.239 432.153 120.72 429.59C116.54 427.25 112.84 425.01 109.72 423.16C106.6 421.31 104.04 419.85 102.26 418.87L100.19 417.78C99.9466 417.655 99.6921 417.555 99.4296 417.48Z" fill="#263238"/>
<path d="M99.5799 388.19C99.6642 388.779 99.7946 389.361 99.9699 389.93C100.127 390.607 100.32 391.274 100.55 391.93C100.81 392.7 101.07 393.6 101.47 394.55C101.87 395.5 102.26 396.55 102.79 397.64C103.32 398.73 103.91 399.88 104.55 401.08C107.465 406.23 111.247 410.837 115.73 414.7C116.73 415.57 117.73 416.41 118.73 417.1C119.73 417.79 120.64 418.45 121.51 419C122.38 419.55 123.18 420 123.89 420.42C124.6 420.84 125.23 421.14 125.75 421.42C126.277 421.695 126.821 421.936 127.38 422.14C126.891 421.801 126.376 421.5 125.84 421.24C125.34 420.97 124.72 420.64 124.04 420.24C123.36 419.84 122.54 419.37 121.71 418.77C120.88 418.17 119.93 417.58 118.99 416.84C118.05 416.1 117.05 415.29 115.99 414.42C111.615 410.523 107.903 405.94 105 400.85C104.35 399.67 103.71 398.56 103.21 397.46C102.71 396.36 102.21 395.36 101.84 394.46C101.47 393.56 101.14 392.65 100.84 391.89C100.54 391.13 100.33 390.46 100.17 389.89C100.021 389.308 99.8239 388.739 99.5799 388.19Z" fill="#263238"/>
<path d="M197.909 342.07C197.909 342.21 203.149 341.18 209.539 339.77C215.929 338.36 221.099 337.11 221.059 336.97C221.019 336.83 215.829 337.85 209.429 339.26C203.029 340.67 197.879 341.93 197.909 342.07Z" fill="#FAFAFA"/>
<path d="M197.91 336.21C199.015 336.183 200.116 336.06 201.2 335.84C203.2 335.53 206 335.03 209.07 334.45L216.9 332.92C217.992 332.746 219.071 332.499 220.13 332.18C219.024 332.206 217.924 332.33 216.84 332.55C214.84 332.86 212.03 333.36 208.97 333.94L201.14 335.48C200.048 335.648 198.968 335.892 197.91 336.21Z" fill="#FAFAFA"/>
<path d="M91.3992 337C91.3992 337.14 113.909 337.09 141.679 336.88C169.449 336.67 191.949 336.38 191.949 336.24C191.949 336.1 169.439 336.15 141.669 336.36C113.899 336.57 91.3992 336.82 91.3992 337Z" fill="#FAFAFA"/>
<path d="M89.7392 342.07C89.7392 342.21 112.899 342.33 141.469 342.33C170.039 342.33 193.199 342.21 193.199 342.07C193.199 341.93 170.039 341.81 141.469 341.81C112.899 341.81 89.7392 341.92 89.7392 342.07Z" fill="#FAFAFA"/>
<path d="M47.5798 330.19C47.5798 330.19 47.5798 330.19 47.4598 330.19C47.3398 330.19 47.5498 330.19 47.6098 330.25H47.6999V330.15H47.2599L47.5699 330.26C49.4099 330.94 57.1498 333.56 66.2798 337.04L79.7398 342.21L83.8199 343.77C84.3113 343.985 84.8197 344.159 85.3398 344.29C84.8831 344.012 84.4009 343.777 83.8998 343.59C82.9498 343.17 81.5798 342.59 79.8998 341.87C76.4898 340.45 71.7598 338.54 66.4898 336.55C57.3398 333.07 49.4898 330.61 47.6198 330.15V330.26H47.7398V330.16H47.6498C47.5898 330.16 47.5398 330.16 47.4998 330.24L47.5798 330.19Z" fill="#FAFAFA"/>
<path d="M48.3992 323.73C48.3992 323.87 57.1292 326.94 68.0092 330.59C78.8892 334.24 87.7392 337.1 87.7792 336.97C87.8192 336.84 79.0492 333.76 68.1692 330.1C57.2892 326.44 48.4492 323.59 48.3992 323.73Z" fill="#FAFAFA"/>
<path d="M115.29 264.34C115.233 264.606 115.203 264.878 115.2 265.15C115.132 265.921 115.112 266.696 115.14 267.47C115.247 270.341 115.845 273.172 116.91 275.84C118.496 279.819 121.045 283.341 124.33 286.09C128.435 289.381 133.458 291.321 138.71 291.641C143.962 291.962 149.185 290.648 153.66 287.88C157.256 285.555 160.216 282.368 162.27 278.61C163.652 276.092 164.592 273.356 165.05 270.52C165.172 269.752 165.245 268.977 165.27 268.2C165.298 267.931 165.298 267.659 165.27 267.39C165.206 267.656 165.169 267.927 165.16 268.2C165.16 268.73 165.01 269.5 164.84 270.49C164.308 273.276 163.328 275.957 161.94 278.43C159.868 282.08 156.936 285.17 153.4 287.43C149 290.12 143.88 291.394 138.733 291.079C133.585 290.765 128.659 288.876 124.62 285.67C121.909 283.422 119.686 280.643 118.089 277.505C116.491 274.367 115.552 270.935 115.33 267.42C115.33 266.42 115.27 265.64 115.33 265.11C115.338 264.853 115.325 264.595 115.29 264.34Z" fill="#FAFAFA"/>
<path d="M237.119 345.34C237.252 345.695 237.43 346.031 237.649 346.34C238.009 346.94 238.569 347.8 239.279 348.85C240.709 350.93 242.789 353.74 245.279 356.69C247.409 359.204 249.665 361.607 252.039 363.89C252.949 364.77 253.699 365.46 254.239 365.89C254.497 366.152 254.79 366.378 255.109 366.56C254.893 366.263 254.649 365.989 254.379 365.74L252.299 363.6C250.539 361.79 248.159 359.25 245.679 356.32C243.199 353.39 241.079 350.63 239.579 348.6L237.819 346.2C237.622 345.886 237.387 345.597 237.119 345.34Z" fill="#FAFAFA"/>
<g opacity="0.3">
<path d="M124.149 420.3C129.199 423.17 136.009 423.63 142.089 423.79C143.235 423.893 144.39 423.74 145.469 423.34C146.005 423.131 146.465 422.765 146.789 422.291C147.114 421.816 147.288 421.255 147.289 420.68C147.159 419.3 145.789 418.42 144.519 417.89C139.609 415.89 134.099 415.97 128.939 414.68C120.159 412.47 111.189 406.2 104.349 400.26C109.046 408.575 115.882 415.48 124.149 420.26" fill="black"/>
</g>
<path d="M143.06 288C148.749 287.547 154.055 284.954 157.908 280.743C161.76 276.532 163.873 271.017 163.82 265.31C163.82 259.69 163.72 255.19 163.72 255.19C163.72 255.19 181.82 252.38 182.04 234.28C182.26 216.18 179.13 174.61 179.13 174.61C168.839 170.186 157.553 168.59 146.439 169.988C135.324 171.385 124.785 175.726 115.91 182.56L113.23 184.62L118.75 267C118.947 269.982 119.735 272.896 121.067 275.571C122.4 278.246 124.251 280.63 126.513 282.584C128.775 284.538 131.402 286.023 134.243 286.953C137.083 287.882 140.08 288.238 143.06 288Z" fill="#D7A18D"/>
<path d="M163.749 254.91C155.392 255.067 147.177 252.735 140.149 248.21C140.149 248.21 145.719 261.21 163.789 259.6L163.749 254.91Z" fill="#4C494A"/>
<path d="M115.46 203.35C115.15 203.22 103.02 199.67 103.46 212.05C103.9 224.43 116.2 221.47 116.21 221.12C116.22 220.77 115.46 203.35 115.46 203.35Z" fill="#D7A18D"/>
<path d="M112.239 216.55C112.179 216.55 112.029 216.71 111.669 216.89C111.163 217.121 110.586 217.15 110.059 216.97C108.739 216.53 107.569 214.49 107.439 212.26C107.372 211.202 107.543 210.143 107.939 209.16C108.044 208.77 108.241 208.41 108.515 208.113C108.788 207.815 109.129 207.588 109.509 207.45C109.755 207.377 110.018 207.392 110.253 207.493C110.489 207.593 110.682 207.773 110.799 208C110.979 208.34 110.909 208.59 110.969 208.61C111.029 208.63 111.229 208.4 111.119 207.89C111.039 207.587 110.859 207.32 110.609 207.13C110.257 206.886 109.824 206.785 109.399 206.85C108.892 206.965 108.424 207.21 108.04 207.56C107.656 207.911 107.37 208.355 107.209 208.85C106.718 209.938 106.502 211.129 106.579 212.32C106.729 214.82 108.089 217.11 109.889 217.57C110.23 217.662 110.588 217.675 110.935 217.607C111.281 217.54 111.608 217.394 111.889 217.18C112.229 216.85 112.279 216.57 112.239 216.55Z" fill="#4C494A"/>
<path d="M172.559 203.61C172.568 204.284 172.312 204.935 171.846 205.422C171.381 205.91 170.743 206.197 170.069 206.22C169.74 206.247 169.409 206.208 169.095 206.105C168.781 206.002 168.491 205.837 168.242 205.619C167.993 205.402 167.79 205.137 167.645 204.84C167.501 204.543 167.417 204.22 167.399 203.89C167.394 203.217 167.65 202.567 168.115 202.08C168.58 201.593 169.216 201.306 169.889 201.28C170.219 201.253 170.55 201.292 170.864 201.395C171.178 201.498 171.468 201.663 171.717 201.881C171.966 202.098 172.169 202.363 172.313 202.66C172.458 202.957 172.542 203.28 172.559 203.61Z" fill="#263238"/>
<path d="M175.699 200.05C175.379 200.39 173.429 198.94 170.639 198.95C167.849 198.96 165.819 200.35 165.519 200.01C165.369 199.86 165.699 199.25 166.589 198.6C167.793 197.767 169.225 197.327 170.689 197.34C172.127 197.339 173.527 197.794 174.689 198.64C175.569 199.29 175.859 199.9 175.699 200.05Z" fill="#263238"/>
<path d="M145.85 204.22C145.855 204.893 145.598 205.543 145.134 206.03C144.669 206.517 144.032 206.804 143.359 206.83C143.03 206.856 142.7 206.816 142.386 206.712C142.073 206.608 141.783 206.443 141.535 206.226C141.286 206.009 141.083 205.745 140.938 205.448C140.793 205.152 140.708 204.829 140.69 204.5C140.681 203.826 140.937 203.175 141.403 202.688C141.868 202.2 142.506 201.913 143.18 201.89C143.509 201.863 143.84 201.902 144.154 202.005C144.468 202.108 144.758 202.273 145.007 202.491C145.256 202.708 145.459 202.973 145.604 203.27C145.748 203.567 145.832 203.89 145.85 204.22Z" fill="#263238"/>
<path d="M148.36 200.57C148.04 200.91 146.08 199.46 143.3 199.47C140.52 199.48 138.48 200.87 138.18 200.53C138.03 200.38 138.35 199.77 139.24 199.12C140.444 198.289 141.876 197.849 143.34 197.86C144.777 197.857 146.178 198.312 147.34 199.16C148.23 199.81 148.52 200.42 148.36 200.57Z" fill="#263238"/>
<path d="M158.459 221.2C158.459 221.04 160.169 220.75 162.969 220.39C163.679 220.31 164.359 220.17 164.479 219.69C164.535 218.954 164.368 218.219 163.999 217.58C163.329 215.86 162.639 214.06 161.899 212.17C158.979 204.47 156.899 198.17 157.179 198.03C157.459 197.89 160.109 204.03 163.029 211.76L165.029 217.2C165.475 218.058 165.606 219.045 165.399 219.99C165.292 220.234 165.131 220.451 164.929 220.624C164.726 220.797 164.487 220.922 164.229 220.99C163.838 221.099 163.435 221.156 163.029 221.16C160.219 221.35 158.469 221.36 158.459 221.2Z" fill="#263238"/>
<path d="M149.08 189.67C148.8 190.43 146.03 190.07 142.76 190.46C139.49 190.85 136.86 191.75 136.43 191.07C136.23 190.74 136.69 190.07 137.76 189.3C139.181 188.404 140.788 187.843 142.458 187.659C144.128 187.476 145.818 187.674 147.4 188.24C148.59 188.72 149.2 189.31 149.08 189.67Z" fill="#263238"/>
<path d="M174.68 192C174.19 192.64 172.28 192 169.97 191.95C167.66 191.9 165.72 192.37 165.27 191.71C165.07 191.39 165.38 190.71 166.27 190.16C167.411 189.434 168.75 189.084 170.1 189.16C171.455 189.183 172.769 189.627 173.86 190.43C174.63 191 174.9 191.7 174.68 192Z" fill="#263238"/>
<path d="M187.949 163.16C188.08 162.032 187.923 160.89 187.49 159.841C187.058 158.791 186.366 157.868 185.479 157.16C184.569 156.493 183.45 156.173 182.324 156.257C181.199 156.342 180.14 156.825 179.339 157.62C179.51 156.864 179.52 156.08 179.368 155.32C179.216 154.56 178.907 153.84 178.459 153.207C178.011 152.574 177.435 152.043 176.768 151.647C176.102 151.252 175.359 151 174.589 150.91C171.589 150.73 169.119 152.96 166.259 153.74C163.399 154.52 160.489 153.84 157.809 152.74C155.129 151.64 152.629 150.17 149.919 149.18C144.188 147.09 137.862 147.346 132.318 149.892C126.774 152.439 122.459 157.07 120.309 162.78C116.309 161.54 111.849 163.55 109.409 166.9C106.969 170.25 106.339 174.66 106.829 178.78C107.208 181.589 107.902 184.347 108.899 187C108.899 187.23 108.899 187.46 108.899 187.7C109.089 197.65 110.209 209.34 114.459 209.4C121.859 209.52 120.099 195.57 120.099 195.57C129.179 192.06 125.799 178.45 128.099 176.39C130.399 174.33 135.099 169.53 154.099 179.25C161.479 183.02 171.299 182.9 176.659 181.69L177.139 181.59H177.249C177.298 181.566 177.348 181.546 177.399 181.53C179.123 181.094 180.768 180.396 182.279 179.46C184.053 178.432 185.454 176.866 186.279 174.99C186.681 174.05 186.8 173.013 186.622 172.006C186.445 171 185.978 170.066 185.279 169.32C186.758 167.575 187.687 165.432 187.949 163.16Z" fill="#263238"/>
<path d="M160.82 229.76C160.432 230.885 159.887 231.948 159.2 232.92C158.852 233.406 158.405 233.813 157.887 234.113C157.37 234.413 156.795 234.6 156.2 234.66C155.565 234.662 154.939 234.504 154.382 234.2C153.824 233.895 153.352 233.455 153.01 232.92C152.334 231.836 152.023 230.564 152.12 229.29C152.17 228.15 152.7 226.79 153.83 226.65C154.309 226.633 154.784 226.74 155.21 226.96L161.21 229.38" fill="#4C494A"/>
<path d="M158.43 234.67C157.355 234.746 156.275 234.614 155.25 234.28C154.205 233.871 153.347 233.091 152.84 232.09C152.554 231.482 152.4 230.82 152.386 230.149C152.372 229.477 152.5 228.809 152.76 228.19C152.897 227.871 153.072 227.568 153.28 227.29C153.52 227.05 153.48 227.06 153.73 227.09C153.98 227.12 154.37 227.35 154.73 227.47L155.73 227.87C157.01 228.39 158.17 228.87 159.14 229.2C161.14 229.93 162.34 230.32 162.39 230.2C162.44 230.08 161.32 229.44 159.44 228.53C158.5 228.08 157.37 227.53 156.12 226.99L155.12 226.55C154.765 226.381 154.401 226.231 154.03 226.1C153.741 226.006 153.429 226.006 153.14 226.1C152.88 226.216 152.654 226.395 152.48 226.62C151.838 227.454 151.451 228.455 151.366 229.504C151.281 230.553 151.501 231.604 152 232.53C152.636 233.712 153.715 234.593 155 234.98C155.835 235.248 156.727 235.282 157.58 235.08C158.18 234.93 158.46 234.73 158.43 234.67Z" fill="#263238"/>
<path d="M127.449 174.65C127.374 173.922 127.374 173.188 127.449 172.46C127.765 170.486 128.768 168.687 130.279 167.38C132.545 165.462 135.467 164.497 138.429 164.69C141.779 164.69 145.339 165.81 149.019 167.05C150.818 167.671 152.647 168.202 154.499 168.64C156.238 169.022 158.01 169.24 159.789 169.29C162.806 169.366 165.816 168.968 168.709 168.11C170.651 167.532 172.522 166.74 174.289 165.75C174.772 165.486 175.239 165.195 175.689 164.88C175.854 164.783 176.008 164.669 176.149 164.54C176.149 164.54 175.459 164.92 174.149 165.54C172.362 166.448 170.49 167.178 168.559 167.72C163.996 169.004 159.186 169.135 154.559 168.1C152.789 167.7 150.979 167.1 149.129 166.52C145.459 165.28 141.829 164.17 138.379 164.16C135.31 164.011 132.303 165.066 129.999 167.1C128.46 168.487 127.472 170.383 127.219 172.44C127.131 173.185 127.21 173.94 127.449 174.65Z" fill="#455A64"/>
<path d="M113.369 205.24C113.369 205.24 113.469 205.12 113.609 204.86C113.819 204.488 114.006 204.104 114.169 203.71C114.805 202.264 115.291 200.756 115.619 199.21C116.104 196.91 116.259 194.553 116.079 192.21C115.739 189.373 115.201 186.562 114.469 183.8C113.754 181.073 113.754 178.207 114.469 175.48C114.815 174.317 115.408 173.242 116.209 172.33C116.919 171.552 117.813 170.964 118.809 170.62C120.256 170.085 121.853 170.128 123.269 170.74C123.768 171.021 124.234 171.357 124.659 171.74C124.337 171.248 123.893 170.848 123.369 170.58C122.648 170.222 121.862 170.012 121.058 169.964C120.254 169.916 119.448 170.03 118.689 170.3C117.617 170.637 116.65 171.243 115.879 172.06C115.021 173.011 114.38 174.137 113.999 175.36C113.248 178.171 113.248 181.129 113.999 183.94C114.726 186.681 115.274 189.467 115.639 192.28C115.838 194.581 115.724 196.899 115.299 199.17C115.006 200.701 114.581 202.203 114.029 203.66C113.589 204.67 113.329 205.22 113.369 205.24Z" fill="#455A64"/>
<path d="M125.709 173.19C125.731 172.947 125.731 172.703 125.709 172.46C125.709 171.93 125.709 171.25 125.639 170.39C125.516 167.855 125.797 165.317 126.469 162.87C126.97 161.203 127.792 159.651 128.889 158.3C130.126 156.746 131.824 155.626 133.739 155.1C135.883 154.604 138.122 154.694 140.219 155.36C142.488 156.079 144.664 157.066 146.699 158.3C148.762 159.543 150.907 160.646 153.119 161.6C155.231 162.426 157.472 162.876 159.739 162.93C161.788 162.979 163.832 162.73 165.809 162.19C167.516 161.711 169.163 161.04 170.719 160.19C172.966 158.914 174.945 157.216 176.549 155.19C176.985 154.647 177.38 154.072 177.729 153.47C177.861 153.265 177.978 153.052 178.079 152.83C177.911 153.006 177.763 153.201 177.639 153.41C177.255 153.984 176.838 154.535 176.389 155.06C174.746 156.993 172.763 158.61 170.539 159.83C168.998 160.648 167.371 161.296 165.689 161.76C163.756 162.273 161.758 162.502 159.759 162.44C157.552 162.376 155.373 161.929 153.319 161.12C151.129 160.165 149.004 159.066 146.959 157.83C144.889 156.566 142.673 155.558 140.359 154.83C138.175 154.145 135.846 154.062 133.619 154.59C131.609 155.152 129.832 156.344 128.549 157.99C127.431 159.393 126.601 161.004 126.109 162.73C125.46 165.218 125.23 167.797 125.429 170.36C125.479 171.27 125.549 171.97 125.609 172.44C125.613 172.693 125.647 172.945 125.709 173.19Z" fill="#455A64"/>
<path d="M18.9102 463.19C18.9102 463.33 120.54 463.45 245.91 463.45C371.28 463.45 472.91 463.33 472.91 463.19C472.91 463.05 371.3 462.93 245.91 462.93C120.52 462.93 18.9102 463 18.9102 463.19Z" fill="#263238"/>
<path d="M299.241 422.13C297.311 424.86 293.591 423.93 291.881 422.25C290.171 420.57 289.441 418.15 288.791 415.84C287.311 410.55 285.791 405.01 286.971 399.65C287.248 398.022 287.972 396.502 289.061 395.26C289.61 394.649 290.31 394.193 291.091 393.939C291.873 393.684 292.707 393.64 293.511 393.81C295.391 394.32 296.511 396.16 297.381 397.91C299.836 403.088 301.103 408.749 301.091 414.48C301.091 417.15 300.761 419.94 299.241 422.13Z" fill="#797677"/>
<path d="M292 436C288.8 434.47 285.192 434.011 281.71 434.69C279.807 434.846 278.012 435.634 276.61 436.93C275.33 438.33 275.08 440.79 276.53 442.01C277.468 442.651 278.599 442.944 279.73 442.84C282.46 442.84 285.48 442.36 287.65 444.01C288.88 444.95 289.7 446.51 291.18 447.01C291.921 447.186 292.699 447.117 293.397 446.812C294.096 446.507 294.676 445.984 295.05 445.32C295.766 443.957 295.931 442.371 295.51 440.89C295.344 439.859 294.94 438.88 294.331 438.031C293.722 437.183 292.924 436.487 292 436Z" fill="#494747"/>
<path d="M304.48 426.09C303.507 424.797 302.862 423.287 302.601 421.69C302.339 420.093 302.47 418.456 302.98 416.92C304.05 413.854 305.942 411.142 308.45 409.08C311.302 406.573 314.613 404.644 318.2 403.4C319.593 402.853 321.086 402.611 322.58 402.69C323.326 402.736 324.048 402.964 324.685 403.355C325.321 403.745 325.852 404.286 326.23 404.93C327.23 406.88 326.23 409.24 325.23 411.17C323.336 414.558 321.183 417.794 318.79 420.85C316.86 423.3 314.66 425.72 311.74 426.85C308.82 427.98 305.79 427.8 304.25 425.77" fill="#949494"/>
<path d="M299.13 463.4C299.035 462.993 298.982 462.578 298.97 462.16C298.89 461.26 298.78 460.16 298.66 458.77C298.501 457.091 298.254 455.422 297.92 453.77C297.49 451.762 296.898 449.792 296.15 447.88C295.406 445.971 294.396 444.176 293.15 442.55C292.142 441.228 290.855 440.146 289.38 439.38C288.376 438.881 287.299 438.543 286.19 438.38C285.772 438.361 285.356 438.301 284.95 438.2C285.369 438.153 285.791 438.153 286.21 438.2C287.364 438.295 288.492 438.596 289.54 439.09C291.101 439.835 292.47 440.93 293.54 442.29C294.825 443.942 295.86 445.776 296.61 447.73C297.373 449.675 297.966 451.682 298.38 453.73C298.684 455.383 298.894 457.053 299.01 458.73C299.11 460.18 299.14 461.34 299.16 462.15C299.199 462.566 299.189 462.986 299.13 463.4Z" fill="#263238"/>
<path d="M298.92 460.79C298.895 460.601 298.895 460.409 298.92 460.22C298.92 459.78 298.92 459.22 298.92 458.57C298.92 457.13 298.92 455.06 298.92 452.5C298.82 447.39 298.42 440.32 297.62 432.55C296.82 424.78 295.71 417.79 294.7 412.78C294.46 411.52 294.22 410.39 294 409.39C293.78 408.39 293.6 407.55 293.42 406.85C293.24 406.15 293.14 405.67 293.04 405.25C292.984 405.065 292.953 404.873 292.95 404.68C293.031 404.853 293.095 405.034 293.14 405.22C293.27 405.63 293.42 406.16 293.61 406.8C293.8 407.44 294.03 408.34 294.28 409.33C294.53 410.32 294.8 411.45 295.06 412.7C296.434 419.241 297.458 425.85 298.13 432.5C298.94 440.28 299.28 447.37 299.28 452.5C299.28 455.06 299.23 457.14 299.16 458.57C299.16 459.24 299.08 459.79 299.05 460.22C299.025 460.414 298.981 460.604 298.92 460.79Z" fill="#263238"/>
<path d="M299 447.13C298.95 446.558 298.95 445.982 299 445.41C299.107 443.845 299.294 442.286 299.56 440.74C300.436 435.639 301.927 430.663 304 425.92C305.998 421.111 308.854 416.706 312.43 412.92C313.057 412.271 313.725 411.663 314.43 411.1C314.73 410.85 315 410.6 315.27 410.4L316.04 409.88C316.496 409.532 316.981 409.225 317.49 408.96C315.809 410.26 314.212 411.667 312.71 413.17C309.261 416.979 306.482 421.344 304.49 426.08C303.347 428.679 302.378 431.352 301.59 434.08C300.83 436.58 300.32 438.87 299.93 440.81C299.54 442.75 299.35 444.33 299.22 445.43C299.186 446.001 299.112 446.569 299 447.13Z" fill="#263238"/>
<path d="M279.87 307.47L322.3 305.66V263.24H279.87V307.47Z" fill="#797677"/>
<path d="M263.05 251.1H305.48V293.53H263.05V251.1Z" fill="#797677"/>
<path d="M279.87 305.66L263.05 293.53V251.1L279.87 263.24V305.66Z" fill="#797677"/>
<path d="M322.3 263.24L305.48 251.1H263.05L279.87 263.24H322.3Z" fill="#797677"/>
<path d="M279.87 307.47L263.05 293.53V251.1L279.87 263.24V307.47Z" fill="#797677"/>
<path opacity="0.3" d="M322.3 263.24L305.48 251.1H263.05L279.87 263.24H322.3Z" fill="#797677"/>
<path opacity="0.4" d="M279.87 307.47L263.05 293.53V251.1L279.87 263.24V307.47Z" fill="black"/>
<path d="M257.12 295.15C256.866 295.957 256.778 296.808 256.86 297.65C257.07 298.07 256.92 297.77 256.96 297.86H257.02L257.12 297.93L257.32 298.08L257.7 298.35C257.95 298.52 258.17 298.67 258.37 298.78C258.76 299.02 259.02 299.14 259.06 299.08C259.1 299.02 258.92 298.8 258.59 298.49L257.99 297.97L257.63 297.67L257.43 297.52L257.33 297.44C257.33 297.54 257.22 297.24 257.43 297.65C257.496 296.804 257.39 295.954 257.12 295.15Z" fill="#797677"/>
<path d="M257.12 284.43C256.773 286.2 256.773 288.02 257.12 289.79C257.467 288.02 257.467 286.2 257.12 284.43Z" fill="#797677"/>
<path d="M257.12 273.71C256.773 275.48 256.773 277.3 257.12 279.07C257.467 277.3 257.467 275.48 257.12 273.71Z" fill="#797677"/>
<path d="M257.12 263C256.773 264.77 256.773 266.59 257.12 268.36C257.467 266.59 257.467 264.77 257.12 263Z" fill="#797677"/>
<path d="M257.12 252.27C256.773 254.04 256.773 255.86 257.12 257.63C257.467 255.86 257.467 254.04 257.12 252.27Z" fill="#797677"/>
<path d="M259.62 244.41C258.814 244.151 257.962 244.062 257.12 244.15L256.86 244.41V244.9V245.37C256.86 245.67 256.86 245.94 256.92 246.17C256.92 246.62 257.03 246.9 257.1 246.9C257.17 246.9 257.24 246.62 257.28 246.17C257.28 245.94 257.28 245.67 257.34 245.37V244.37L257.08 244.63C257.933 244.73 258.797 244.655 259.62 244.41Z" fill="#797677"/>
<path d="M269.21 244.41C267.629 244.063 265.991 244.063 264.41 244.41C265.991 244.757 267.629 244.757 269.21 244.41Z" fill="#797677"/>
<path d="M278.8 244.41C277.222 244.063 275.588 244.063 274.01 244.41C275.588 244.757 277.222 244.757 278.8 244.41Z" fill="#797677"/>
<path d="M288.391 244.41C286.813 244.063 285.178 244.063 283.601 244.41C285.178 244.757 286.813 244.757 288.391 244.41Z" fill="#797677"/>
<path d="M298 244.41C296.422 244.063 294.788 244.063 293.21 244.41C294.788 244.757 296.422 244.757 298 244.41Z" fill="#797677"/>
<path d="M307.37 245C307.37 244.93 307.21 244.66 306.83 244.28H306.74C306.33 244.28 305.8 244.22 305.21 244.22C304.404 244.133 303.589 244.221 302.82 244.48C303.59 244.733 304.404 244.821 305.21 244.74C305.8 244.74 306.33 244.74 306.74 244.68L306.61 244.63C307 244.87 307.32 245 307.37 245Z" fill="#797677"/>
<path d="M314.75 251.09C314.84 250.98 314.09 250.2 313.07 249.36C312.05 248.52 311.15 247.92 311.07 248.03C310.99 248.14 311.73 248.91 312.75 249.76C313.77 250.61 314.66 251.2 314.75 251.09Z" fill="#797677"/>
<path d="M322.13 257.21C322.22 257.1 321.47 256.33 320.45 255.48C319.43 254.63 318.53 254.04 318.45 254.15C318.37 254.26 319.11 255.04 320.13 255.88C321.15 256.72 322 257.33 322.13 257.21Z" fill="#797677"/>
<path d="M327.771 264.37C328.017 263.561 328.099 262.711 328.011 261.87L327.911 261.67H327.861L327.761 261.59L327.571 261.44L327.201 261.15L326.551 260.68C326.171 260.43 325.921 260.3 325.871 260.36C325.821 260.42 326.001 260.64 326.321 260.97C326.481 261.13 326.671 261.32 326.891 261.52L327.241 261.83L327.431 261.99L327.531 262.07H327.581C327.581 261.99 327.671 262.27 327.481 261.88C327.411 262.721 327.509 263.568 327.771 264.37Z" fill="#797677"/>
<path d="M327.87 274.29C328.116 273.488 328.194 272.644 328.1 271.81C328.175 270.973 328.08 270.129 327.82 269.33C327.477 270.981 327.494 272.686 327.87 274.33V274.29Z" fill="#797677"/>
<path d="M328 284.21C328.253 283.409 328.335 282.564 328.24 281.73C328.316 280.893 328.22 280.049 327.96 279.25C327.708 280.051 327.626 280.896 327.72 281.73C327.645 282.567 327.74 283.411 328 284.21Z" fill="#797677"/>
<path d="M328.061 294.13C328.307 293.328 328.389 292.484 328.301 291.65C328.376 290.812 328.277 289.968 328.011 289.17C327.764 289.972 327.686 290.816 327.781 291.65C327.705 292.487 327.8 293.331 328.061 294.13Z" fill="#797677"/>
<path d="M328.16 304.05C328.406 303.248 328.484 302.404 328.39 301.57C328.465 300.733 328.37 299.889 328.11 299.09C327.863 299.892 327.782 300.736 327.87 301.57C327.795 302.408 327.894 303.252 328.16 304.05Z" fill="#797677"/>
<path d="M325.731 311.55C326.544 311.79 327.398 311.865 328.241 311.77C328.751 311.24 328.381 311.62 328.491 311.5V311V310.53C328.491 310.23 328.491 309.96 328.431 309.74C328.381 309.29 328.311 309.01 328.241 309.01C328.171 309.01 328.101 309.29 328.061 309.74C328.061 309.97 328.061 310.24 328.011 310.54C327.961 310.84 328.011 310.86 328.011 311.01V311.48L328.271 311.22C327.41 311.155 326.546 311.267 325.731 311.55Z" fill="#797677"/>
<path d="M316.26 311.7C317.023 311.951 317.833 312.03 318.63 311.93C319.429 311.995 320.233 311.893 320.99 311.63C320.227 311.379 319.417 311.304 318.62 311.41C317.822 311.34 317.018 311.439 316.26 311.7Z" fill="#797677"/>
<path d="M306.79 311.86C307.556 312.099 308.364 312.174 309.161 312.08C309.96 312.155 310.766 312.053 311.521 311.78C310.755 311.541 309.947 311.466 309.15 311.56C308.351 311.489 307.546 311.592 306.79 311.86Z" fill="#797677"/>
<path d="M297.31 312C298.877 312.32 300.495 312.293 302.05 311.92C300.483 311.6 298.865 311.627 297.31 312Z" fill="#797677"/>
<path d="M287.84 312.17C289.407 312.49 291.025 312.463 292.58 312.09C291.811 311.852 291 311.777 290.2 311.87C289.401 311.802 288.597 311.904 287.84 312.17Z" fill="#797677"/>
<path d="M278.371 312.33C279.136 312.569 279.944 312.644 280.741 312.55C281.54 312.621 282.345 312.518 283.101 312.25C282.335 312.011 281.527 311.936 280.731 312.03C279.931 311.953 279.125 312.056 278.371 312.33Z" fill="#797677"/>
<path d="M270.44 307.74C270.36 307.85 271.13 308.58 272.18 309.37C272.755 309.914 273.436 310.332 274.18 310.6C274.27 310.48 273.49 309.75 272.45 308.96C271.41 308.17 270.53 307.62 270.44 307.74Z" fill="#797677"/>
<path d="M262.89 302C262.8 302.11 263.58 302.85 264.62 303.64C265.197 304.179 265.877 304.594 266.62 304.86C266.7 304.74 265.93 304.01 264.89 303.22C263.85 302.43 263 301.9 262.89 302Z" fill="#797677"/>
<path d="M268.64 241C268.5 241 268.5 241.61 268.64 242.28C268.78 242.95 269.03 243.47 269.17 243.44C269.31 243.41 269.3 242.84 269.17 242.17C269.04 241.5 268.78 240.92 268.64 241Z" fill="#797677"/>
<path d="M266.34 230.79C266.275 231.669 266.383 232.553 266.66 233.39C266.774 234.263 267.056 235.105 267.49 235.87C267.451 234.117 267.06 232.389 266.34 230.79Z" fill="#797677"/>
<path d="M264.001 220.62C264.043 222.372 264.43 224.098 265.141 225.7C265.099 223.948 264.711 222.222 264.001 220.62Z" fill="#797677"/>
<path d="M261.75 210.45C261.79 212.206 262.181 213.937 262.9 215.54C262.966 214.661 262.857 213.777 262.58 212.94C262.468 212.064 262.186 211.218 261.75 210.45Z" fill="#797677"/>
<path d="M259.46 200.28C259.394 201.159 259.503 202.043 259.78 202.88C259.888 203.757 260.17 204.604 260.61 205.37C260.57 203.614 260.179 201.883 259.46 200.28Z" fill="#797677"/>
<path d="M257.161 190.12C257.101 190.999 257.21 191.882 257.48 192.72C257.594 193.593 257.876 194.435 258.31 195.2C258.376 194.321 258.267 193.437 257.991 192.6C257.882 191.726 257.6 190.883 257.161 190.12Z" fill="#797677"/>
<path d="M255.47 182.6C255.33 182.6 255.34 183.2 255.47 183.87C255.6 184.54 255.86 185.07 256 185.03C256.14 184.99 256.13 184.43 256 183.76C255.87 183.09 255.61 182.56 255.47 182.6Z" fill="#797677"/>
<path d="M307.82 242.17C307.69 242.11 307.34 242.56 307.03 243.17C306.72 243.78 306.57 244.34 306.7 244.41C306.83 244.48 307.18 244.02 307.49 243.41C307.8 242.8 307.95 242.24 307.82 242.17Z" fill="#797677"/>
<path d="M312.21 233.47C312.08 233.4 311.48 234.33 310.88 235.53C310.438 236.227 310.142 237.006 310.01 237.82C310.14 237.89 310.74 236.96 311.34 235.76C311.782 235.063 312.078 234.284 312.21 233.47Z" fill="#797677"/>
<path d="M316.59 224.76C316.011 225.349 315.558 226.05 315.26 226.82C314.818 227.519 314.525 228.302 314.4 229.12C314.979 228.531 315.432 227.83 315.73 227.06C316.174 226.362 316.467 225.578 316.59 224.76Z" fill="#797677"/>
<path d="M321 216.06C320.87 215.99 320.28 216.92 319.67 218.12C319.229 218.816 318.936 219.596 318.81 220.41C318.94 220.48 319.53 219.55 320.14 218.35C320.581 217.654 320.874 216.874 321 216.06Z" fill="#797677"/>
<path d="M325.36 207.35C324.778 207.936 324.325 208.638 324.03 209.41C323.585 210.108 323.288 210.891 323.16 211.71C323.743 211.124 324.196 210.422 324.49 209.65C324.933 208.95 325.229 208.168 325.36 207.35Z" fill="#797677"/>
<path d="M329.74 198.65C329.61 198.58 329.02 199.51 328.41 200.71C327.969 201.406 327.677 202.186 327.55 203C328.129 202.411 328.582 201.71 328.88 200.94C329.321 200.244 329.614 199.464 329.74 198.65Z" fill="#797677"/>
<path d="M334.12 189.94C333.541 190.529 333.088 191.23 332.79 192C332.349 192.696 332.056 193.476 331.93 194.29C332.06 194.36 332.65 193.44 333.26 192.29C333.709 191.576 334.002 190.775 334.12 189.94Z" fill="#797677"/>
<path d="M338.511 181.24C338.381 181.17 337.781 182.09 337.181 183.3C336.736 183.995 336.44 184.775 336.311 185.59C336.893 185.004 337.347 184.302 337.641 183.53C338.083 182.833 338.379 182.054 338.511 181.24Z" fill="#797677"/>
<path d="M341.82 174.65C341.69 174.59 341.34 175.03 341.03 175.65C340.72 176.27 340.57 176.82 340.7 176.88C340.83 176.94 341.18 176.5 341.49 175.88C341.8 175.26 341.95 174.72 341.82 174.65Z" fill="#797677"/>
<path d="M386.131 257.3C386.131 257.44 386.711 257.52 387.401 257.46C388.091 257.4 388.641 257.25 388.631 257.11C388.621 256.97 388.051 256.89 387.361 256.94C386.671 256.99 386.121 257.16 386.131 257.3Z" fill="#797677"/>
<path d="M376 258.1C376.841 258.289 377.711 258.309 378.56 258.16C379.422 258.176 380.279 258.019 381.08 257.7C380.239 257.511 379.369 257.491 378.52 257.64C377.658 257.62 376.8 257.777 376 258.1Z" fill="#797677"/>
<path d="M365.811 258.89C367.514 259.105 369.242 258.968 370.891 258.49C369.188 258.275 367.459 258.412 365.811 258.89Z" fill="#797677"/>
<path d="M355.65 259.69C357.353 259.905 359.082 259.768 360.73 259.29C359.889 259.102 359.019 259.081 358.17 259.23C357.308 259.207 356.449 259.363 355.65 259.69Z" fill="#797677"/>
<path d="M345.481 260.48C346.321 260.675 347.192 260.695 348.041 260.54C348.902 260.557 349.758 260.405 350.561 260.09C349.722 259.885 348.851 259.854 348.001 260C347.137 259.995 346.281 260.158 345.481 260.48Z" fill="#797677"/>
<path d="M335.32 261.28C336.161 261.468 337.031 261.489 337.88 261.34C338.743 261.36 339.601 261.203 340.4 260.88C338.698 260.665 336.969 260.802 335.32 261.28Z" fill="#797677"/>
<path d="M327.75 261.87C327.75 262.02 328.32 262.09 329.01 262.04C329.7 261.99 330.25 261.82 330.24 261.68C330.23 261.54 329.66 261.46 328.97 261.52C328.28 261.58 327.73 261.73 327.75 261.87Z" fill="#797677"/>
<path d="M319.626 147.327C314.143 123.637 328.904 99.9867 352.595 94.5041C376.286 89.0215 399.936 103.782 405.419 127.473C410.901 151.164 396.14 174.814 372.449 180.297C348.758 185.779 325.109 171.018 319.626 147.327Z" fill="#494747"/>
<path d="M318.49 137.41C318.49 137.41 318.49 137.17 318.55 136.69C318.61 136.21 318.63 135.51 318.69 134.6C318.69 134.14 318.72 133.63 318.78 133.07C318.83 132.5 318.95 131.89 319.05 131.23C319.15 130.57 319.27 129.85 319.39 129.08C319.541 128.27 319.734 127.469 319.97 126.68C320.991 122.562 322.633 118.624 324.84 115C327.724 110.173 331.514 105.949 336 102.56L337.9 101.14C338.57 100.71 339.27 100.31 339.96 99.88C340.65 99.45 341.34 98.99 342.1 98.64L344.37 97.55L345.52 97L346.74 96.56L349.2 95.66C350.04 95.38 350.92 95.21 351.78 94.97C352.653 94.7136 353.542 94.5132 354.44 94.37C356.267 94.029 358.114 93.8152 359.97 93.73C360.92 93.73 361.87 93.6 362.83 93.62L365.73 93.77C366.21 93.77 366.73 93.77 367.19 93.86L368.65 94.09C369.65 94.25 370.65 94.36 371.6 94.57C373.583 95.0076 375.534 95.5789 377.44 96.28C379.398 96.9873 381.306 97.8259 383.15 98.79C384.07 99.29 384.96 99.87 385.88 100.42C386.32 100.7 386.8 100.95 387.23 101.27L388.52 102.27C390.279 103.564 391.949 104.974 393.52 106.49L395.75 108.94L396.31 109.56L396.81 110.22L397.81 111.56L398.81 112.91L399.69 114.35L400.57 115.8L401.01 116.53L401.39 117.29L402.87 120.38L404 123.59C407.007 132.555 407.007 142.255 404 151.22C403.6 152.3 403.2 153.38 402.81 154.46C402.42 155.54 401.81 156.52 401.32 157.55L400.95 158.31L400.51 159.04L399.62 160.49L398.74 161.93L397.74 163.28L396.74 164.62L396.24 165.29L395.68 165.9L393.46 168.35C391.889 169.869 390.219 171.282 388.46 172.58L387.17 173.58C386.74 173.91 386.26 174.15 385.82 174.44C384.9 174.98 384.01 175.56 383.09 176.07C381.246 177.034 379.338 177.873 377.38 178.58C375.471 179.272 373.521 179.843 371.54 180.29C370.54 180.49 369.54 180.61 368.59 180.77L367.13 180.99C366.64 181.06 366.13 181.05 365.67 181.09L362.77 181.24C361.77 181.24 360.86 181.16 359.91 181.13C358.051 181.042 356.2 180.824 354.37 180.48C353.475 180.336 352.59 180.135 351.72 179.88C350.85 179.65 349.98 179.47 349.14 179.19L346.67 178.29L345.46 177.85L344.3 177.3L342.03 176.21C341.296 175.834 340.582 175.42 339.89 174.97C339.19 174.55 338.49 174.15 337.83 173.71L335.93 172.3C331.452 168.905 327.667 164.682 324.78 159.86C322.603 156.214 320.991 152.259 320 148.13C319.764 147.341 319.571 146.54 319.42 145.73C319.3 144.97 319.19 144.25 319.08 143.59C318.97 142.93 318.86 142.31 318.81 141.75C318.76 141.19 318.74 140.67 318.72 140.21C318.66 139.3 318.61 138.61 318.58 138.12C318.55 137.63 318.52 137.41 318.52 137.41C318.52 137.41 318.52 137.65 318.52 138.12C318.52 138.59 318.57 139.31 318.6 140.22C318.6 140.68 318.6 141.22 318.67 141.76C318.74 142.3 318.83 142.94 318.92 143.61C319.01 144.28 319.12 145 319.24 145.76C319.379 146.576 319.562 147.384 319.79 148.18C320.776 152.342 322.395 156.329 324.59 160C327.467 164.881 331.264 169.157 335.77 172.59L337.67 174.02C338.34 174.46 339.05 174.87 339.75 175.3C340.45 175.73 341.14 176.21 341.9 176.56L344.19 177.67L345.36 178.23L346.59 178.68L349.07 179.59C349.92 179.87 350.8 180.06 351.68 180.3C352.558 180.555 353.449 180.759 354.35 180.91C356.2 181.253 358.071 181.474 359.95 181.57C360.95 181.57 361.86 181.7 362.83 181.69L365.76 181.54C366.25 181.54 366.76 181.54 367.24 181.45L368.72 181.23C369.72 181.07 370.72 180.95 371.72 180.75C375.78 179.842 379.706 178.413 383.4 176.5C384.34 175.99 385.23 175.4 386.16 174.85C386.61 174.56 387.1 174.32 387.53 173.99L388.84 172.99C390.598 171.677 392.268 170.251 393.84 168.72L396.1 166.24L396.66 165.62L397.17 164.95L398.17 163.59L399.17 162.23L400.06 160.77L401 159.29L401.45 158.56L401.83 157.78C402.33 156.753 402.83 155.713 403.33 154.66C403.73 153.57 404.13 152.48 404.54 151.38C407.587 142.312 407.587 132.498 404.54 123.43L403.34 120.15C402.84 119.1 402.34 118.06 401.83 117.02L401.46 116.25L401.01 115.52L400.12 114.05L399.22 112.59L398.22 111.23L397.22 109.87L396.71 109.2L396.14 108.58L393.89 106.1C392.321 104.57 390.65 103.147 388.89 101.84L387.59 100.84C387.16 100.52 386.67 100.27 386.22 99.98C385.29 99.43 384.4 98.84 383.46 98.34C379.766 96.4266 375.84 94.9981 371.78 94.09C370.78 93.88 369.78 93.77 368.78 93.61L367.3 93.39C366.81 93.32 366.3 93.33 365.82 93.29L362.89 93.15C361.89 93.15 360.96 93.23 360.01 93.26C358.134 93.3539 356.266 93.5778 354.42 93.93C353.515 94.0754 352.62 94.2792 351.74 94.54C350.86 94.78 349.98 94.96 349.14 95.24L346.65 96.16L345.42 96.61L344.26 97.17L341.96 98.28C341.2 98.63 340.52 99.12 339.81 99.53C339.1 99.94 338.41 100.37 337.74 100.81L335.83 102.24C331.326 105.676 327.529 109.951 324.65 114.83C322.453 118.488 320.828 122.461 319.83 126.61C319.603 127.406 319.42 128.214 319.28 129.03C319.16 129.8 319.06 130.52 318.96 131.18C318.86 131.84 318.76 132.47 318.71 133.03C318.66 133.59 318.66 134.12 318.64 134.58C318.64 135.49 318.58 136.19 318.56 136.67C318.54 137.15 318.49 137.41 318.49 137.41Z" fill="#797677"/>
<path d="M360.441 121.26C360.441 121.26 360.311 121.21 360.041 121.17C359.645 121.122 359.246 121.122 358.851 121.17C357.346 121.284 355.929 121.925 354.851 122.98C354.216 123.599 353.712 124.338 353.367 125.155C353.023 125.971 352.845 126.849 352.845 127.735C352.845 128.621 353.023 129.499 353.367 130.315C353.712 131.132 354.216 131.871 354.851 132.49C355.873 133.487 357.19 134.129 358.605 134.32C360.021 134.511 361.46 134.241 362.711 133.55C363.488 133.126 364.173 132.551 364.725 131.858C365.276 131.165 365.683 130.368 365.922 129.515C366.16 128.662 366.226 127.77 366.114 126.892C366.002 126.013 365.715 125.166 365.271 124.4C364.525 123.108 363.35 122.117 361.951 121.6C361.577 121.456 361.188 121.355 360.791 121.3C360.652 121.276 360.51 121.276 360.371 121.3C360.371 121.3 360.941 121.41 361.871 121.8C363.178 122.369 364.26 123.353 364.951 124.6C365.451 125.521 365.714 126.552 365.714 127.6C365.714 128.648 365.451 129.679 364.951 130.6C364.376 131.686 363.492 132.577 362.411 133.16C361.251 133.782 359.925 134.023 358.621 133.85C357.362 133.674 356.188 133.118 355.253 132.256C354.319 131.395 353.669 130.27 353.391 129.03C353.168 128.012 353.201 126.955 353.488 125.953C353.774 124.952 354.304 124.037 355.031 123.29C356.029 122.271 357.338 121.614 358.751 121.42C359.871 121.21 360.441 121.31 360.441 121.26Z" fill="#FEF4CF"/>
<path d="M358 113L358.09 112.79L358.35 112.16L359.35 109.62H359.26L365.26 110.48L365.15 110.36C365.24 111.46 365.34 112.68 365.44 113.98V114.07H365.53C366.728 114.583 367.852 115.256 368.87 116.07L368.95 116.13H369.04L372.36 114.64L372.13 114.58L375.76 119.37V119.12L373.42 121.9L373.34 122V122.12C373.836 123.314 374.172 124.568 374.34 125.85V126H374.47L377.87 127.28L377.72 127.03C377.46 128.9 377.19 130.92 376.9 133.03L377.12 132.83L373.5 133.14H373.35V133.28C372.83 134.472 372.158 135.591 371.35 136.61L371.26 136.73L371.32 136.87L372.83 140.17L372.9 139.87L368.12 143.5H368.44L365.65 141.17L365.53 141.07L365.39 141.13C364.199 141.625 362.948 141.961 361.67 142.13L361.45 142.3V142.35V142.46L361.37 142.67L361.21 143.1L360.9 143.95C360.68 144.52 360.47 145.09 360.26 145.65L360.54 145.48L354.54 144.68L354.76 144.91C354.66 143.69 354.55 142.48 354.44 141.29V141.14L354.3 141.08C353.107 140.586 351.987 139.934 350.97 139.14L350.85 139.05L350.71 139.11L347.4 140.62L347.7 140.7C346.46 139.06 345.243 137.467 344.05 135.92V136.22C344.84 135.22 345.61 134.34 346.38 133.43L346.47 133.32L346.41 133.19C345.915 131.996 345.579 130.742 345.41 129.46V129.32L345.29 129.27L341.88 128.01L342.02 128.24C342.3 126.15 342.56 124.17 342.81 122.24L342.63 122.41L346.25 122.08H346.36V121.98C346.856 120.782 347.508 119.656 348.3 118.63L348.36 118.54V118.45L346.84 115.15L346.79 115.34L351.55 111.66H351.41L354.21 113.97H354.26C355.167 113.589 356.108 113.294 357.07 113.09L357.78 112.95L358 113C357.917 112.985 357.833 112.985 357.75 113C357.508 113.019 357.268 113.053 357.03 113.1C356.053 113.265 355.097 113.536 354.18 113.91H354.26L351.5 111.55L351.43 111.49L351.35 111.55L346.55 115.16L346.45 115.23L346.5 115.35L348 118.67V118.5C347.185 119.543 346.512 120.69 346 121.91L346.15 121.8L342.53 122.11H342.38V122.27L341.56 128.22V128.4L341.72 128.46L345.12 129.74L344.97 129.55C345.132 130.872 345.468 132.166 345.97 133.4V133.17C345.2 134.08 344.42 135 343.63 135.95L343.51 136.09L343.62 136.25L347.26 141.04L347.38 141.19L347.56 141.11L350.87 139.61H350.61C351.662 140.427 352.819 141.1 354.05 141.61L353.89 141.4C354 142.59 354.1 143.8 354.21 145.01V145.22H354.41L360.41 146.03H360.62L360.69 145.83L361.32 144.13L361.64 143.28L361.8 142.85L361.88 142.64V142.53V142.48L361.67 142.65C362.995 142.486 364.292 142.15 365.53 141.65H365.26L368.05 143.98L368.21 144.11L368.37 143.99L373.15 140.34L373.31 140.22L373.23 140.03L371.72 136.73V136.99C372.539 135.935 373.212 134.775 373.72 133.54L373.52 133.69L377.13 133.37H377.33V133.18C377.61 131.11 377.88 129.09 378.13 127.18V127L377.95 126.93L374.55 125.67L374.69 125.85C374.527 124.528 374.19 123.234 373.69 122V122.22C374.51 121.22 375.3 120.3 376.02 119.43L376.12 119.31L376.03 119.18L372.37 114.4L372.28 114.29L372.14 114.35L368.84 115.87H369.02C367.972 115.051 366.819 114.378 365.59 113.87L365.68 114C365.56 112.69 365.44 111.48 365.34 110.38V110.27H365.24L359.24 109.51H359.17V109.57C358.79 110.66 358.49 111.51 358.27 112.11C358.18 112.38 358.1 112.6 358.05 112.77C358.023 112.844 358.006 112.921 358 113Z" fill="#FEF4CF"/>
<path fill-rule="evenodd" clip-rule="evenodd" d="M368.551 148.36C367.833 148.45 367.13 148.635 366.461 148.91L364.921 147.63L362.281 149.63L363.111 151.45C362.665 152.022 362.299 152.651 362.021 153.32L360.021 153.5L359.581 156.79L361.451 157.49C361.545 158.208 361.733 158.911 362.011 159.58L360.721 161.12L362.721 163.76L364.541 162.93C365.116 163.367 365.745 163.729 366.411 164.01L366.591 166.01L369.881 166.46L370.581 164.58C371.299 164.49 372.001 164.305 372.671 164.03L374.211 165.32L376.851 163.32L376.021 161.49C376.468 160.92 376.835 160.29 377.111 159.62L379.111 159.45L379.561 156.16L377.681 155.46C377.59 154.739 377.405 154.033 377.131 153.36L378.421 151.83L376.421 149.19L374.591 150.02C374.02 149.573 373.391 149.206 372.721 148.93L372.551 146.93L369.261 146.48L368.561 148.36H368.551ZM369.901 152.93C370.6 153.025 371.256 153.326 371.784 153.795C372.312 154.264 372.689 154.879 372.867 155.562C373.044 156.246 373.015 156.967 372.782 157.633C372.548 158.3 372.122 158.882 371.557 159.306C370.992 159.729 370.314 159.975 369.609 160.013C368.904 160.05 368.203 159.877 367.597 159.515C366.991 159.153 366.505 158.619 366.203 157.98C365.901 157.342 365.796 156.628 365.901 155.93C366.039 155.005 366.537 154.171 367.285 153.61C368.034 153.048 368.973 152.804 369.901 152.93Z" fill="#FEF4CF"/>
<path d="M211.037 172.907C193.842 155.712 193.842 127.834 211.037 110.639C228.232 93.4445 256.11 93.4445 273.305 110.639C290.499 127.834 290.499 155.712 273.305 172.907C256.11 190.102 228.232 190.102 211.037 172.907Z" fill="#494747"/>
<path d="M198.14 141.77C198.14 141.77 198.14 141.53 198.2 141.06C198.26 140.59 198.28 139.87 198.33 138.97C198.33 138.51 198.39 137.97 198.42 137.43C198.45 136.89 198.6 136.25 198.7 135.59C198.8 134.93 198.92 134.21 199.04 133.44C199.16 132.67 199.42 131.89 199.61 131.04C200.64 126.923 202.285 122.986 204.49 119.36C207.374 114.536 211.16 110.313 215.64 106.92L217.54 105.5C218.2 105.07 218.9 104.67 219.6 104.24C220.3 103.81 220.98 103.35 221.73 103L224 101.91L225.16 101.36L226.37 100.92L228.84 100.02C229.68 99.75 230.55 99.57 231.42 99.33C232.291 99.0794 233.176 98.8791 234.07 98.73C235.9 98.3884 237.751 98.1746 239.61 98.09C240.56 98.09 241.51 97.97 242.47 97.98L245.37 98.13C245.85 98.13 246.37 98.13 246.83 98.22L248.29 98.45C249.29 98.61 250.29 98.73 251.24 98.93C255.255 99.8366 259.137 101.255 262.79 103.15C263.71 103.65 264.6 104.24 265.51 104.78C265.96 105.07 266.44 105.31 266.87 105.63L268.15 106.63C269.908 107.924 271.579 109.334 273.15 110.85L275.38 113.3L275.94 113.92L276.44 114.58L277.44 115.92L278.44 117.27L279.32 118.71L280.2 120.16L280.64 120.89L281.01 121.65L282.5 124.74L283.68 128C286.694 136.963 286.694 146.667 283.68 155.63L282.49 158.87L281.01 161.96L280.63 162.72L280.19 163.45L279.31 164.9L278.43 166.34L277.43 167.69L276.43 169.03L275.93 169.7L275.37 170.31L273.14 172.77C271.569 174.286 269.899 175.696 268.14 176.99L266.85 177.99C266.42 178.32 265.94 178.56 265.49 178.85C264.58 179.39 263.69 179.98 262.77 180.48C260.923 181.446 259.012 182.285 257.05 182.99C255.142 183.685 253.191 184.256 251.21 184.7C250.21 184.9 249.21 185.02 248.27 185.18L246.81 185.4C246.32 185.47 245.81 185.46 245.34 185.5L242.44 185.65C241.44 185.65 240.53 185.57 239.59 185.54C237.731 185.45 235.88 185.237 234.05 184.9C233.157 184.747 232.272 184.547 231.4 184.3C230.53 184.06 229.65 183.88 228.82 183.6L226.35 182.71L225.13 182.26L223.98 181.71L221.7 180.62C220.94 180.28 220.27 179.79 219.56 179.39C218.85 178.99 218.17 178.56 217.5 178.12L215.61 176.71C211.127 173.32 207.341 169.096 204.46 164.27C202.256 160.64 200.611 156.699 199.58 152.58C199.39 151.73 199.1 150.95 199.01 150.18C198.92 149.41 198.78 148.7 198.67 148.04C198.56 147.38 198.45 146.76 198.39 146.2C198.33 145.64 198.33 145.12 198.3 144.66C198.25 143.75 198.2 143.06 198.17 142.57C198.14 142.08 198.11 141.86 198.11 141.86C198.11 141.86 198.11 142.1 198.11 142.57C198.11 143.04 198.11 143.76 198.19 144.67C198.19 145.13 198.19 145.67 198.25 146.21C198.31 146.75 198.42 147.39 198.51 148.06C198.6 148.73 198.71 149.45 198.82 150.22C198.93 150.99 199.19 151.78 199.38 152.63C200.368 156.785 201.994 160.762 204.2 164.42C207.076 169.296 210.869 173.568 215.37 177L217.28 178.43C217.95 178.88 218.66 179.28 219.35 179.72C220.04 180.16 220.74 180.62 221.51 180.97L223.84 182L225.01 182.56L226.23 183.01L228.72 183.92C229.56 184.2 230.45 184.39 231.32 184.63C232.201 184.884 233.096 185.088 234 185.24C235.845 185.593 237.713 185.813 239.59 185.9C240.59 185.9 241.51 186.03 242.48 186.02L245.41 185.87C245.9 185.87 246.41 185.87 246.89 185.78L248.36 185.56C249.36 185.4 250.36 185.28 251.36 185.08C253.365 184.636 255.34 184.061 257.27 183.36C259.252 182.648 261.183 181.803 263.05 180.83C263.98 180.32 264.88 179.73 265.81 179.18C266.26 178.9 266.74 178.65 267.18 178.32L268.48 177.32C270.238 176.007 271.908 174.58 273.48 173.05L275.73 170.57L276.3 169.95L276.81 169.28L277.81 167.92L278.81 166.56L279.71 165.1L280.6 163.64L281.05 162.9L281.42 162.13C281.92 161.13 282.42 160.05 282.93 159L284.13 155.72C287.183 146.653 287.183 136.837 284.13 127.77L282.93 124.49L281.42 121.37L281.04 120.59L280.6 119.86L279.7 118.39L278.81 116.93L277.81 115.57L276.81 114.22L276.3 113.54L275.73 112.92C274.98 112.09 274.22 111.27 273.48 110.44C271.908 108.913 270.238 107.49 268.48 106.18L267.18 105.18C266.74 104.85 266.26 104.6 265.81 104.31C264.88 103.76 263.98 103.18 263.05 102.67C261.185 101.693 259.253 100.848 257.27 100.14C255.34 99.4388 253.365 98.8643 251.36 98.42C250.36 98.22 249.36 98.1 248.36 97.94L246.89 97.72C246.4 97.65 245.89 97.66 245.41 97.62L242.48 97.48C241.48 97.48 240.55 97.56 239.6 97.6C237.72 97.6863 235.849 97.9068 234 98.26C233.098 98.4065 232.206 98.6103 231.33 98.87C230.45 99.11 229.57 99.29 228.72 99.58L226.24 100.49L225 101L223.83 101.56L221.54 102.67C220.78 103.02 220.1 103.51 219.39 103.92C218.68 104.33 217.98 104.76 217.31 105.2L215.41 106.63C210.906 110.066 207.109 114.341 204.23 119.22C202.028 122.875 200.405 126.848 199.42 131C199.23 131.86 198.95 132.65 198.86 133.42C198.77 134.19 198.65 134.91 198.55 135.58C198.45 136.25 198.34 136.86 198.29 137.42C198.24 137.98 198.29 138.51 198.23 138.97C198.23 139.88 198.17 140.58 198.15 141.07C198.13 141.56 198.14 141.77 198.14 141.77Z" fill="#797677"/>
<path d="M223.259 151.151C218.214 140 223.165 126.872 234.316 121.827C245.466 116.783 258.595 121.734 263.639 132.884C268.683 144.035 263.733 157.164 252.582 162.208C241.431 167.252 228.303 162.302 223.259 151.151Z" fill="#797677"/>
<path d="M265.57 140.55C265.561 140.67 265.561 140.79 265.57 140.91C265.57 141.17 265.57 141.52 265.57 141.96V142.74C265.57 143.02 265.57 143.33 265.49 143.67C265.435 144.443 265.328 145.211 265.17 145.97C264.776 148.062 264.076 150.084 263.09 151.97C260.748 156.51 256.9 160.093 252.206 162.106C247.511 164.118 242.262 164.434 237.36 163C236.361 162.709 235.382 162.351 234.43 161.93C233.463 161.482 232.531 160.964 231.64 160.38C230.724 159.793 229.849 159.145 229.02 158.44C228.2 157.69 227.428 156.888 226.71 156.04C225.234 154.303 224.046 152.342 223.19 150.23C222.329 148.047 221.796 145.749 221.61 143.41C221.484 141.056 221.713 138.696 222.29 136.41C222.854 134.2 223.773 132.096 225.01 130.18C225.619 129.245 226.287 128.35 227.01 127.5C227.737 126.691 228.519 125.932 229.35 125.23C230.16 124.536 231.019 123.901 231.92 123.33C236.714 120.353 242.47 119.332 247.996 120.478C253.522 121.625 258.396 124.851 261.61 129.49C262.837 131.23 263.795 133.144 264.45 135.17C264.71 135.901 264.917 136.649 265.07 137.41C265.14 137.74 265.22 138.04 265.27 138.32C265.32 138.6 265.35 138.86 265.38 139.09C265.44 139.53 265.49 139.87 265.52 140.09C265.533 140.212 265.556 140.332 265.59 140.45C265.605 140.331 265.605 140.21 265.59 140.09C265.59 139.82 265.53 139.48 265.49 139.04C265.49 138.8 265.44 138.54 265.41 138.26C265.38 137.98 265.3 137.67 265.23 137.34C265.092 136.567 264.898 135.805 264.65 135.06C264.02 133.002 263.079 131.053 261.86 129.28C260.104 126.689 257.819 124.498 255.156 122.852C252.493 121.206 249.513 120.141 246.41 119.729C243.306 119.316 240.151 119.564 237.151 120.457C234.15 121.35 231.372 122.868 229 124.91C228.147 125.626 227.345 126.402 226.6 127.23C225.875 128.096 225.207 129.008 224.6 129.96C223.331 131.922 222.389 134.077 221.81 136.34C221.219 138.668 220.983 141.072 221.11 143.47C221.301 145.871 221.847 148.23 222.73 150.47C223.605 152.65 224.824 154.676 226.34 156.47C227.076 157.337 227.867 158.156 228.71 158.92C229.558 159.645 230.454 160.313 231.39 160.92C232.305 161.512 233.261 162.04 234.25 162.5C238.901 164.513 244.091 164.921 249 163.66C252.067 162.86 254.928 161.416 257.393 159.425C259.859 157.433 261.872 154.94 263.3 152.11C264.272 150.19 264.946 148.133 265.3 146.01C265.443 145.24 265.534 144.462 265.57 143.68C265.57 143.34 265.63 143.03 265.63 142.74C265.63 142.45 265.63 142.2 265.63 141.96C265.63 141.52 265.63 141.17 265.58 140.91C265.59 140.79 265.586 140.669 265.57 140.55Z" fill="#FEF4CF"/>
<path d="M233.4 142.68C233.663 142.707 233.928 142.707 234.19 142.68L236.34 142.73C238.17 142.73 240.71 142.73 243.59 142.73H243.73V141.15C243.73 137.94 243.73 135.04 243.73 132.94C243.73 131.94 243.73 131.08 243.68 130.45C243.691 130.142 243.674 129.835 243.63 129.53C243.586 129.835 243.566 130.142 243.57 130.45C243.57 131.08 243.57 131.92 243.57 132.94C243.57 135.04 243.52 137.94 243.52 141.15V142.59L243.67 142.45C240.79 142.45 238.25 142.45 236.42 142.5H234.27C233.974 142.526 233.682 142.586 233.4 142.68Z" fill="#FEF4CF"/>
<path d="M243.52 123.48C243.334 124.713 243.334 125.967 243.52 127.2C243.707 125.967 243.707 124.713 243.52 123.48Z" fill="#FEF4CF"/>
<path d="M233.421 126.47C234.148 127.465 235.025 128.342 236.021 129.07C235.696 128.543 235.291 128.071 234.821 127.67C234.42 127.198 233.948 126.793 233.421 126.47Z" fill="#263238"/>
<path d="M227.52 132.92C227.991 133.31 228.504 133.646 229.05 133.92C229.546 134.277 230.084 134.572 230.65 134.8C230.244 134.334 229.751 133.951 229.2 133.67C228.692 133.318 228.122 133.064 227.52 132.92Z" fill="#263238"/>
<path d="M224.061 142.49C225.749 142.677 227.452 142.677 229.141 142.49C227.452 142.303 225.749 142.303 224.061 142.49Z" fill="#FEF4CF"/>
<path d="M259.25 142.15C260.844 142.337 262.455 142.337 264.05 142.15C262.455 141.963 260.844 141.963 259.25 142.15Z" fill="#FEF4CF"/>
<path d="M256.77 149.27C257.302 149.894 257.91 150.448 258.58 150.92C259.188 151.471 259.86 151.947 260.58 152.34C260.04 151.725 259.432 151.172 258.77 150.69C258.158 150.144 257.488 149.667 256.77 149.27Z" fill="#FEF4CF"/>
<path d="M250.62 154.78C250.98 155.523 251.395 156.238 251.86 156.92C252.239 157.651 252.677 158.35 253.17 159.01C252.929 158.213 252.568 157.458 252.1 156.77C251.713 156.034 251.214 155.362 250.62 154.78Z" fill="#FEF4CF"/>
<path d="M243.52 161.89C243.707 160.202 243.707 158.498 243.52 156.81C243.333 158.498 243.333 160.202 243.52 161.89Z" fill="#FEF4CF"/>
<path d="M232.58 158.51C233.351 158.152 234.057 157.669 234.67 157.08C235.338 156.55 235.916 155.915 236.38 155.2C235.713 155.714 235.079 156.268 234.48 156.86C233.815 157.373 233.181 157.924 232.58 158.51Z" fill="#FEF4CF"/>
<path d="M227.441 153C228.06 152.579 228.624 152.081 229.121 151.52C229.688 151.03 230.186 150.465 230.601 149.84C229.981 150.261 229.417 150.759 228.921 151.32C228.359 151.816 227.862 152.381 227.441 153Z" fill="#FEF4CF"/>
<path d="M257.001 135.33C257.55 134.973 258.048 134.542 258.481 134.05C258.978 133.618 259.409 133.116 259.761 132.56C259.212 132.917 258.714 133.348 258.281 133.84C257.784 134.272 257.353 134.774 257.001 135.33Z" fill="#FEF4CF"/>
<path d="M250.66 128.65C251.209 128.312 251.701 127.89 252.12 127.4C252.609 126.981 253.033 126.493 253.38 125.95C252.831 126.288 252.338 126.71 251.92 127.2C251.431 127.619 251.006 128.107 250.66 128.65Z" fill="#FEF4CF"/>
<path d="M222.182 134.243C216.246 131.805 213.41 125.016 215.849 119.08C218.287 113.143 225.076 110.308 231.012 112.746C236.948 115.184 239.784 121.973 237.346 127.91C234.908 133.846 228.119 136.682 222.182 134.243Z" fill="#797677"/>
<path d="M221 119.86C221.413 120.527 221.892 121.15 222.43 121.72C223.35 122.82 224.66 124.33 226.13 125.97C226.54 126.42 226.94 126.85 227.32 127.28L227.49 127.46L227.67 127.3C229 126.11 230.14 125.05 230.94 124.3C231.398 123.924 231.805 123.491 232.15 123.01C231.631 123.297 231.15 123.65 230.72 124.06C229.86 124.76 228.72 125.77 227.34 126.94H227.69C227.317 126.513 226.927 126.073 226.52 125.62C225.05 123.98 223.7 122.52 222.7 121.47C222.199 120.869 221.628 120.328 221 119.86Z" fill="#FEF4CF"/>
<path d="M331.951 314.85C332.041 314.75 331.291 313.91 330.261 312.99C329.231 312.07 328.331 311.4 328.261 311.51C328.191 311.62 328.921 312.45 329.951 313.37C330.981 314.29 331.851 315 331.951 314.85Z" fill="#797677"/>
<path d="M339.381 321.54C339.481 321.43 338.731 320.6 337.701 319.67C336.671 318.74 335.761 318.09 335.701 318.2C335.641 318.31 336.351 319.14 337.381 320.06C338.411 320.98 339.291 321.65 339.381 321.54Z" fill="#797677"/>
<path d="M346.82 328.23C346.92 328.12 346.16 327.23 345.13 326.36C344.568 325.739 343.888 325.236 343.13 324.88C343.04 324.99 343.79 325.82 344.82 326.75C345.382 327.371 346.062 327.874 346.82 328.23Z" fill="#797677"/>
<path d="M354.25 334.91C354.35 334.81 353.6 333.97 352.57 333.05C351.54 332.13 350.63 331.46 350.57 331.57C350.51 331.68 351.22 332.51 352.25 333.44C353.28 334.37 354.16 335 354.25 334.91Z" fill="#797677"/>
<path d="M361.69 341.6C361.79 341.49 361.03 340.66 360 339.74C358.97 338.82 358.07 338.15 358 338.26C357.93 338.37 358.66 339.2 359.69 340.12C360.72 341.04 361.59 341.71 361.69 341.6Z" fill="#797677"/>
<path d="M345.786 387.424C340.184 363.761 354.825 340.037 378.487 334.434C402.15 328.832 425.875 343.473 431.477 367.136C437.079 390.799 422.438 414.523 398.776 420.125C375.113 425.728 351.388 411.087 345.786 387.424Z" fill="#494747"/>
<path d="M344.6 377.29C344.6 377.29 344.6 377.05 344.66 376.58C344.72 376.11 344.73 375.4 344.79 374.49C344.79 374.03 344.85 373.49 344.88 372.95C344.91 372.41 345.06 371.77 345.16 371.11C345.26 370.45 345.38 369.73 345.5 368.97C345.646 368.16 345.836 367.359 346.07 366.57C347.098 362.449 348.743 358.508 350.95 354.88C353.834 350.056 357.62 345.833 362.1 342.44L364 341C364.67 340.56 365.37 340.16 366.07 339.73C366.77 339.3 367.44 338.84 368.2 338.5L370.48 337.41L371.64 336.86L372.85 336.41L375.32 335.52C376.16 335.24 377.03 335.06 377.9 334.82C378.773 334.574 379.657 334.374 380.55 334.22C382.381 333.883 384.231 333.67 386.09 333.58C387.03 333.58 387.99 333.46 388.95 333.47L391.84 333.62C392.33 333.62 392.84 333.62 393.31 333.72L394.77 333.94C395.77 334.1 396.77 334.22 397.71 334.42C399.692 334.864 401.642 335.435 403.55 336.13C405.509 336.834 407.417 337.672 409.26 338.64C410.19 339.14 411.08 339.73 411.99 340.27C412.44 340.56 412.92 340.8 413.34 341.13L414.63 342.13C416.389 343.424 418.059 344.834 419.63 346.35L421.85 348.8L422.41 349.42L422.92 350.09L423.92 351.43L424.92 352.77L425.8 354.21L426.68 355.66L427.12 356.39L427.49 357.16C427.99 358.16 428.49 359.21 428.98 360.24C429.47 361.27 429.77 362.4 430.17 363.49C433.184 372.45 433.184 382.15 430.17 391.11C429.77 392.19 429.38 393.28 428.98 394.35C428.58 395.42 427.98 396.42 427.5 397.44L427.12 398.21L426.68 398.93L425.8 400.38L424.92 401.83L423.92 403.17L422.92 404.51L422.42 405.18L421.86 405.8L419.63 408.25C418.059 409.766 416.389 411.176 414.63 412.47L413.35 413.47C412.92 413.79 412.44 414.03 411.99 414.32C411.08 414.86 410.19 415.45 409.27 415.95C407.423 416.916 405.512 417.755 403.55 418.46C401.645 419.164 399.694 419.735 397.71 420.17C396.71 420.38 395.71 420.49 394.77 420.65L393.31 420.88C392.82 420.94 392.31 420.94 391.84 420.97L388.94 421.12C387.94 421.12 387.03 421.04 386.09 421.01C384.231 420.925 382.38 420.712 380.55 420.37C379.655 420.228 378.77 420.027 377.9 419.77C377.03 419.53 376.15 419.35 375.32 419.08L372.85 418.18L371.63 417.74L370.48 417.19L368.2 416.09C367.44 415.75 366.77 415.26 366.06 414.86C365.35 414.46 364.67 414.03 364 413.59L362.11 412.18C357.624 408.79 353.835 404.566 350.95 399.74C348.743 396.094 347.098 392.136 346.07 388C345.837 387.211 345.647 386.41 345.5 385.6C345.38 384.83 345.26 384.12 345.16 383.45C345.06 382.78 344.94 382.18 344.88 381.61C344.82 381.04 344.82 380.53 344.79 380.07C344.73 379.17 344.69 378.47 344.66 377.98C344.63 377.49 344.6 377.27 344.6 377.27C344.6 377.27 344.6 377.51 344.6 377.99C344.6 378.47 344.6 379.17 344.68 380.08C344.68 380.54 344.68 381.08 344.74 381.63C344.8 382.18 344.9 382.81 345 383.47C345.1 384.13 345.2 384.86 345.31 385.63C345.454 386.446 345.641 387.254 345.87 388.05C346.861 392.2 348.483 396.173 350.68 399.83C353.563 404.704 357.359 408.975 361.86 412.41L363.77 413.85C364.44 414.29 365.15 414.69 365.84 415.13C366.53 415.57 367.23 416.03 368 416.38L370.29 417.49L371.46 418.05L372.68 418.5L375.17 419.41C376.01 419.7 376.9 419.88 377.77 420.12C378.65 420.379 379.545 420.582 380.45 420.73C382.296 421.083 384.164 421.303 386.04 421.39C387.04 421.39 387.96 421.52 388.93 421.51L391.86 421.37C392.35 421.37 392.86 421.37 393.33 421.27L394.81 421.05C395.81 420.89 396.81 420.78 397.81 420.57C399.817 420.13 401.791 419.556 403.72 418.85C405.702 418.139 407.633 417.293 409.5 416.32C410.43 415.82 411.33 415.23 412.26 414.68C412.71 414.39 413.19 414.14 413.63 413.81L414.93 412.81C416.69 411.5 418.361 410.073 419.93 408.54L422.18 406.07L422.75 405.44L423.26 404.77L424.26 403.41L425.26 402.05L426.16 400.6L427.05 399.13L427.49 398.39L427.87 397.62L429.38 394.49L430.58 391.21C433.633 382.143 433.633 372.327 430.58 363.26L429.38 359.98C428.87 358.98 428.38 357.9 427.87 356.86L427.49 356.08L427.04 355.35L426.15 353.88L425.26 352.43L424.26 351.06L423.26 349.71L422.75 349.04L422.18 348.41L419.95 346C418.378 344.47 416.708 343.043 414.95 341.73L413.64 340.73C413.21 340.4 412.73 340.15 412.27 339.86C411.35 339.32 410.45 338.73 409.52 338.22C407.651 337.251 405.72 336.406 403.74 335.69C401.799 334.998 399.815 334.433 397.8 334C396.8 333.8 395.8 333.68 394.8 333.52L393.33 333.3C392.83 333.24 392.33 333.24 391.85 333.21L388.92 333.06C387.92 333.06 386.99 333.14 386.03 333.18C384.154 333.267 382.286 333.487 380.44 333.84C379.539 333.991 378.648 334.195 377.77 334.45C376.89 334.69 376.01 334.88 375.16 335.16L372.67 336.07L371.45 336.52L370.28 337.08L367.99 338.19C367.22 338.54 366.55 339.03 365.84 339.44C365.13 339.85 364.43 340.28 363.76 340.73L361.86 342.16C357.356 345.592 353.56 349.864 350.68 354.74C348.474 358.398 346.849 362.375 345.86 366.53C345.63 367.323 345.443 368.127 345.3 368.94C345.19 369.71 345.08 370.43 344.99 371.1C344.9 371.77 344.78 372.38 344.73 372.95C344.68 373.52 344.73 374.03 344.67 374.49C344.67 375.4 344.6 376.1 344.59 376.59C344.58 377.08 344.6 377.29 344.6 377.29Z" fill="#797677"/>
<path d="M366.541 397C366.822 397.038 367.107 397.055 367.391 397.05L369.821 397.1L378.821 397.19L408.371 397.28H410.721V397C410.721 386 410.661 376.06 410.641 368.85C410.641 365.32 410.571 362.45 410.551 360.4C410.551 359.4 410.551 358.68 410.501 358.11C410.516 357.844 410.516 357.576 410.501 357.31C410.455 357.574 410.435 357.842 410.441 358.11C410.441 358.68 410.441 359.44 410.441 360.4C410.441 362.45 410.441 365.32 410.351 368.85C410.351 376.06 410.351 385.96 410.271 397L410.551 396.72H408.441L378.891 396.8L369.891 396.89L367.461 396.94C367.153 396.93 366.845 396.95 366.541 397Z" fill="#FEF4CF"/>
<path d="M371.42 366.94C371.82 367.393 372.258 367.811 372.73 368.19L376.43 371.44C379.58 374.17 383.95 377.91 388.79 382.01L389.53 382.64L389.72 382.8L389.9 382.63L395.4 377.52H395L403.08 384.18L405.42 386.05C405.691 386.29 405.986 386.501 406.3 386.68C406.071 386.4 405.813 386.145 405.53 385.92L403.28 383.92L395.34 377.11L395.16 376.96L394.99 377.12L389.47 382.2H389.84L389.11 381.58C384.26 377.47 379.85 373.78 376.64 371.13L372.82 368.01C372.38 367.62 371.912 367.262 371.42 366.94Z" fill="#FEF4CF"/>
<path d="M371.42 376.13C371.57 375.228 371.634 374.314 371.61 373.4C371.61 371.7 371.69 369.34 371.69 366.72L371.42 367H371.89C374.62 367 377.09 367 378.89 366.92C379.861 366.95 380.832 366.883 381.79 366.72C380.831 366.569 379.861 366.502 378.89 366.52C377.1 366.52 374.63 366.44 371.89 366.44H371.14V366.72C371.14 369.34 371.14 371.72 371.22 373.4C371.189 374.315 371.256 375.23 371.42 376.13Z" fill="#FEF4CF"/>
<path d="M389.907 264.542C384.078 240.934 398.49 217.071 422.098 211.241C445.706 205.412 469.57 219.825 475.399 243.433C481.229 267.041 466.816 290.904 443.208 296.734C419.6 302.563 395.736 288.15 389.907 264.542Z" fill="white"/>
<path d="M388.63 254C388.63 254 388.63 253.75 388.69 253.28C388.75 252.81 388.76 252.1 388.82 251.19C388.82 250.73 388.88 250.19 388.91 249.65C388.94 249.11 389.09 248.48 389.19 247.81C389.29 247.14 389.41 246.43 389.53 245.67C389.65 244.91 389.91 244.12 390.1 243.27C391.134 239.145 392.786 235.201 395 231.57C397.884 226.743 401.669 222.516 406.15 219.12L408 217.71C408.67 217.28 409.37 216.88 410.07 216.45C410.77 216.02 411.44 215.56 412.2 215.21L414.48 214.12L415.64 213.57L416.85 213.13L419.32 212.23C420.16 211.95 421.03 211.77 421.9 211.54C422.77 211.285 423.655 211.084 424.55 210.94C426.38 210.598 428.231 210.385 430.09 210.3C431.03 210.3 431.99 210.17 432.95 210.19L435.84 210.34C436.33 210.34 436.84 210.34 437.31 210.43L438.77 210.66C439.77 210.82 440.77 210.93 441.71 211.13C443.693 211.573 445.644 212.148 447.55 212.85C449.509 213.554 451.417 214.392 453.26 215.36C454.19 215.86 455.08 216.44 455.99 216.99C456.44 217.27 456.92 217.52 457.34 217.84L458.63 218.84C460.389 220.134 462.059 221.544 463.63 223.06L465.85 225.51L466.41 226.12L466.92 226.79L467.92 228.13L468.92 229.48L469.8 230.92L470.68 232.37L471.12 233.09L471.49 233.86L473 236.92L474.19 240.16C477.204 249.12 477.204 258.82 474.19 267.78C473.79 268.87 473.4 269.95 473 271.03C472.6 272.11 472 273.09 471.52 274.11L471.14 274.88L470.7 275.61L469.82 277.06L468.94 278.5L467.94 279.85L466.94 281.19L466.44 281.85L465.88 282.47L463.65 284.92C462.079 286.436 460.409 287.846 458.65 289.14L457.37 290.14C456.94 290.46 456.46 290.71 456.01 290.99C455.1 291.54 454.21 292.12 453.29 292.62C449.632 294.515 445.748 295.936 441.73 296.85C440.73 297.05 439.73 297.16 438.79 297.33L437.33 297.55C436.84 297.61 436.33 297.61 435.86 297.64L432.96 297.79C431.96 297.79 431.05 297.72 430.11 297.68C428.251 297.595 426.4 297.382 424.57 297.04C423.675 296.898 422.79 296.697 421.92 296.44C421.05 296.21 420.17 296.03 419.34 295.75L416.87 294.85L415.65 294.41L414.5 293.86L412.22 292.77C411.46 292.42 410.79 291.93 410.08 291.53C409.37 291.13 408.69 290.71 408.02 290.27L406.13 288.86C401.652 285.455 397.873 281.218 395 276.38C392.802 272.752 391.16 268.815 390.13 264.7C389.897 263.911 389.707 263.11 389.56 262.3C389.44 261.54 389.32 260.82 389.22 260.16C389.12 259.5 389 258.88 388.94 258.32C388.88 257.76 388.88 257.24 388.85 256.78C388.79 255.87 388.75 255.18 388.72 254.69C388.69 254.2 388.66 253.98 388.66 253.98C388.66 253.98 388.66 254.22 388.66 254.69C388.66 255.16 388.66 255.88 388.74 256.78C388.74 257.25 388.74 257.78 388.8 258.33C388.86 258.88 388.96 259.51 389.06 260.18C389.16 260.85 389.26 261.56 389.37 262.33C389.513 263.146 389.7 263.954 389.93 264.75C390.919 268.9 392.542 272.874 394.74 276.53C397.616 281.405 401.405 285.68 405.9 289.12L407.81 290.55C408.48 290.99 409.19 291.4 409.88 291.83C410.57 292.26 411.27 292.74 412.04 293.09L414.33 294.2L415.5 294.75L416.72 295.2L419.21 296.12C420.05 296.4 420.94 296.58 421.81 296.82C422.69 297.082 423.585 297.289 424.49 297.44C426.337 297.783 428.205 298.003 430.08 298.1C431.08 298.1 432 298.23 432.97 298.22L435.9 298.07C436.39 298.07 436.9 298.07 437.37 297.98L438.85 297.75C439.85 297.59 440.85 297.48 441.85 297.28C443.856 296.832 445.83 296.254 447.76 295.55C449.736 294.831 451.66 293.979 453.52 293C454.45 292.5 455.35 291.91 456.28 291.36C456.73 291.07 457.21 290.83 457.65 290.5L458.95 289.5C460.71 288.193 462.381 286.77 463.95 285.24L466.2 282.76L466.77 282.14L467.28 281.47L468.28 280.11L469.28 278.75L470.18 277.29L471.07 275.82L471.51 275.09L471.89 274.31C472.39 273.31 472.89 272.23 473.4 271.19L474.66 268C477.713 258.933 477.713 249.117 474.66 240.05L473.46 236.77L471.95 233.64L471.57 232.87L471.12 232.13L470.23 230.67L469.34 229.21L468.34 227.85L467.34 226.49L466.83 225.82L466.26 225.2L464 222.67C462.431 221.14 460.76 219.717 459 218.41L457.69 217.41C457.26 217.09 456.78 216.84 456.32 216.55C455.4 216 454.5 215.41 453.57 214.91C451.703 213.937 449.772 213.091 447.79 212.38C445.861 211.674 443.887 211.1 441.88 210.66C440.88 210.45 439.88 210.34 438.88 210.18L437.41 209.95C436.91 209.89 436.41 209.89 435.93 209.86L433 209.72C432 209.72 431.07 209.8 430.11 209.83C428.235 209.927 426.367 210.147 424.52 210.49C423.618 210.64 422.726 210.847 421.85 211.11C420.97 211.35 420.09 211.53 419.24 211.81L416.75 212.73L415.53 213.18L414.36 213.73L412 214.86C411.23 215.21 410.56 215.71 409.85 216.12C409.14 216.53 408.44 216.96 407.77 217.4L405.87 218.83C401.366 222.266 397.569 226.541 394.69 231.42C392.485 235.074 390.859 239.048 389.87 243.2C389.68 244.06 389.4 244.84 389.31 245.62C389.22 246.4 389.09 247.1 389 247.77C388.91 248.44 388.79 249.05 388.74 249.62C388.69 250.19 388.74 250.7 388.68 251.17C388.68 252.08 388.62 252.77 388.6 253.26C388.58 253.75 388.63 254 388.63 254Z" fill="#797677"/>
<path d="M431.52 234.83L426.75 244.5C426.658 244.678 426.525 244.832 426.361 244.949C426.198 245.066 426.009 245.141 425.81 245.17L415.14 246.72C414.91 246.754 414.695 246.851 414.518 247.001C414.341 247.151 414.21 247.347 414.139 247.568C414.068 247.789 414.061 248.025 414.118 248.25C414.174 248.475 414.293 248.679 414.46 248.84L422.18 256.36C422.322 256.502 422.428 256.676 422.489 256.867C422.55 257.059 422.564 257.262 422.53 257.46L420.71 268.08C420.67 268.308 420.695 268.543 420.782 268.758C420.869 268.973 421.014 269.159 421.202 269.296C421.389 269.432 421.611 269.513 421.842 269.53C422.073 269.547 422.305 269.498 422.51 269.39L432.05 264.39C432.227 264.296 432.424 264.247 432.625 264.247C432.825 264.247 433.023 264.296 433.2 264.39L442.75 269.39C442.954 269.5 443.185 269.549 443.417 269.533C443.648 269.517 443.87 269.435 444.057 269.298C444.244 269.161 444.389 268.974 444.474 268.759C444.56 268.543 444.582 268.308 444.54 268.08L442.72 257.46C442.688 257.261 442.703 257.058 442.766 256.866C442.829 256.675 442.936 256.501 443.08 256.36L450.8 248.84C450.963 248.677 451.078 248.472 451.132 248.247C451.186 248.023 451.177 247.788 451.106 247.568C451.034 247.349 450.903 247.153 450.728 247.003C450.552 246.854 450.338 246.756 450.11 246.72L439.44 245.17C439.243 245.141 439.055 245.064 438.893 244.948C438.732 244.831 438.6 244.678 438.51 244.5L433.74 234.83C433.637 234.624 433.479 234.45 433.283 234.328C433.086 234.207 432.86 234.143 432.63 234.143C432.399 234.143 432.173 234.207 431.977 234.328C431.781 234.45 431.623 234.624 431.52 234.83Z" fill="#FAFAFA"/>
<path d="M431.52 234.83C431.52 234.83 431.52 234.73 431.72 234.57C431.86 234.423 432.035 234.314 432.228 234.253C432.422 234.191 432.627 234.179 432.827 234.218C433.026 234.257 433.212 234.345 433.368 234.475C433.524 234.605 433.645 234.771 433.72 234.96L434.65 236.9C435.35 238.36 436.21 240.13 437.21 242.19L437.99 243.79C438.12 244.07 438.26 244.35 438.4 244.63C438.579 244.953 438.877 245.193 439.23 245.3C440.56 245.52 441.89 245.7 443.32 245.92L447.8 246.59L450.17 246.95C450.342 246.984 450.503 247.062 450.635 247.178C450.768 247.294 450.867 247.442 450.924 247.608C450.981 247.774 450.993 247.953 450.959 248.125C450.925 248.297 450.846 248.458 450.73 248.59L443 256.13C442.79 256.314 442.634 256.552 442.551 256.819C442.469 257.085 442.461 257.369 442.53 257.64L442.77 259.08C442.94 260.08 443.1 261.02 443.27 262C443.6 264 443.95 266 444.27 268C444.323 268.206 444.31 268.424 444.23 268.622C444.151 268.82 444.011 268.987 443.83 269.1C443.656 269.216 443.447 269.266 443.24 269.24C443.014 269.212 442.798 269.129 442.61 269L439.78 267.52L434.01 264.52L433.27 264.13C432.958 263.983 432.606 263.944 432.27 264.02C431.986 264.106 431.714 264.227 431.46 264.38L430.74 264.76L427.87 266.27L422.28 269.21C422.138 269.268 421.985 269.292 421.832 269.282C421.679 269.271 421.53 269.225 421.398 269.148C421.265 269.07 421.152 268.964 421.068 268.836C420.983 268.708 420.929 268.562 420.91 268.41C420.911 268.178 420.938 267.946 420.99 267.72C421.16 266.72 421.33 265.72 421.5 264.72C421.83 262.72 422.16 260.83 422.5 258.94L422.74 257.54C422.789 257.271 422.765 256.993 422.67 256.736C422.575 256.479 422.412 256.253 422.2 256.08C421.54 255.43 420.88 254.8 420.2 254.17C418.9 252.91 417.643 251.687 416.43 250.5L414.63 248.76C414.489 248.66 414.376 248.526 414.303 248.369C414.23 248.213 414.198 248.04 414.211 247.868C414.224 247.696 414.281 247.53 414.378 247.387C414.474 247.243 414.606 247.127 414.76 247.05C415.103 246.919 415.464 246.842 415.83 246.82L417 246.65L419.19 246.32L423.26 245.71L425.14 245.43C425.45 245.37 425.72 245.36 426.05 245.27C426.365 245.168 426.631 244.955 426.8 244.67L429.38 239.37L431 236L431.4 235.13C431.49 234.93 431.53 234.82 431.53 234.82C431.462 234.906 431.404 235 431.36 235.1C431.24 235.32 431.09 235.6 430.91 235.96C430.5 236.75 429.91 237.86 429.22 239.27L426.57 244.51C426.444 244.736 426.242 244.909 426 245C425.76 245.07 425.42 245.09 425.13 245.14L423.26 245.4L419.18 245.98L416.99 246.29L415.85 246.45C415.438 246.471 415.033 246.558 414.65 246.71C414.448 246.826 414.276 246.989 414.15 247.184C414.023 247.38 413.945 247.604 413.923 247.836C413.9 248.068 413.934 248.302 414.02 248.518C414.107 248.735 414.244 248.927 414.42 249.08L416.2 250.83L419.96 254.51L421.96 256.44C422.113 256.552 422.231 256.706 422.301 256.883C422.37 257.06 422.387 257.253 422.35 257.44L422.11 258.84C421.783 260.72 421.45 262.647 421.11 264.62C420.94 265.62 420.77 266.62 420.59 267.62C420.53 267.892 420.503 268.171 420.51 268.45C420.535 268.764 420.666 269.06 420.88 269.29C421.087 269.525 421.364 269.687 421.669 269.754C421.975 269.82 422.294 269.787 422.58 269.66L428.21 266.72L431 265.21L431.72 264.83C431.934 264.701 432.162 264.597 432.4 264.52C432.612 264.474 432.833 264.499 433.03 264.59L433.76 264.97L439.53 267.97L442.36 269.46C442.613 269.617 442.895 269.719 443.19 269.76C443.51 269.786 443.83 269.705 444.1 269.53C444.365 269.362 444.57 269.116 444.688 268.825C444.807 268.535 444.832 268.215 444.76 267.91C444.407 265.87 444.073 263.87 443.76 261.91C443.59 260.91 443.42 259.91 443.25 258.99L443.01 257.55C442.946 257.357 442.943 257.15 443 256.955C443.057 256.76 443.172 256.588 443.33 256.46L451.09 248.85C451.242 248.657 451.344 248.428 451.384 248.185C451.424 247.942 451.402 247.692 451.32 247.46C451.243 247.234 451.112 247.031 450.937 246.869C450.763 246.707 450.551 246.59 450.32 246.53L447.92 246.18L443.44 245.55L439.38 244.97C439.111 244.89 438.882 244.712 438.74 244.47L438.33 243.64L437.53 242.05L434.89 236.8C434.52 236.08 434.2 235.44 433.89 234.88C433.78 234.626 433.594 234.412 433.358 234.269C433.121 234.126 432.846 234.06 432.57 234.08C432.403 234.092 432.241 234.138 432.093 234.215C431.945 234.292 431.814 234.4 431.71 234.53C431.622 234.612 431.556 234.715 431.52 234.83Z" fill="#263238"/>
<path d="M389.907 264.542C384.078 240.934 398.49 217.071 422.098 211.241C445.706 205.412 469.57 219.825 475.399 243.433C481.229 267.041 466.816 290.904 443.208 296.734C419.6 302.563 395.736 288.15 389.907 264.542Z" fill="#494747"/>
<path d="M388.63 254C388.63 254 388.63 253.75 388.69 253.28C388.75 252.81 388.76 252.1 388.82 251.19C388.82 250.73 388.88 250.19 388.91 249.65C388.94 249.11 389.09 248.48 389.19 247.81C389.29 247.14 389.41 246.43 389.53 245.67C389.65 244.91 389.91 244.12 390.1 243.27C391.134 239.145 392.786 235.201 395 231.57C397.884 226.743 401.669 222.516 406.15 219.12L408 217.71C408.67 217.28 409.37 216.88 410.07 216.45C410.77 216.02 411.44 215.56 412.2 215.21L414.48 214.12L415.64 213.57L416.85 213.13L419.32 212.23C420.16 211.95 421.03 211.77 421.9 211.54C422.77 211.285 423.655 211.084 424.55 210.94C426.38 210.598 428.231 210.385 430.09 210.3C431.03 210.3 431.99 210.17 432.95 210.19L435.84 210.34C436.33 210.34 436.84 210.34 437.31 210.43L438.77 210.66C439.77 210.82 440.77 210.93 441.71 211.13C443.693 211.573 445.644 212.148 447.55 212.85C449.509 213.554 451.417 214.392 453.26 215.36C454.19 215.86 455.08 216.44 455.99 216.99C456.44 217.27 456.92 217.52 457.34 217.84L458.63 218.84C460.389 220.134 462.059 221.544 463.63 223.06L465.85 225.51L466.41 226.12L466.92 226.79L467.92 228.13L468.92 229.48L469.8 230.92L470.68 232.37L471.12 233.09L471.49 233.86L473 236.92L474.19 240.16C477.204 249.12 477.204 258.82 474.19 267.78C473.79 268.87 473.4 269.95 473 271.03C472.6 272.11 472 273.09 471.52 274.11L471.14 274.88L470.7 275.61L469.82 277.06L468.94 278.5L467.94 279.85L466.94 281.19L466.44 281.85L465.88 282.47L463.65 284.92C462.079 286.436 460.409 287.846 458.65 289.14L457.37 290.14C456.94 290.46 456.46 290.71 456.01 290.99C455.1 291.54 454.21 292.12 453.29 292.62C449.632 294.515 445.748 295.936 441.73 296.85C440.73 297.05 439.73 297.16 438.79 297.33L437.33 297.55C436.84 297.61 436.33 297.61 435.86 297.64L432.96 297.79C431.96 297.79 431.05 297.72 430.11 297.68C428.251 297.595 426.4 297.382 424.57 297.04C423.675 296.898 422.79 296.697 421.92 296.44C421.05 296.21 420.17 296.03 419.34 295.75L416.87 294.85L415.65 294.41L414.5 293.86L412.22 292.77C411.46 292.42 410.79 291.93 410.08 291.53C409.37 291.13 408.69 290.71 408.02 290.27L406.13 288.86C401.652 285.455 397.873 281.218 395 276.38C392.802 272.752 391.16 268.815 390.13 264.7C389.897 263.911 389.707 263.11 389.56 262.3C389.44 261.54 389.32 260.82 389.22 260.16C389.12 259.5 389 258.88 388.94 258.32C388.88 257.76 388.88 257.24 388.85 256.78C388.79 255.87 388.75 255.18 388.72 254.69C388.69 254.2 388.66 253.98 388.66 253.98C388.66 253.98 388.66 254.22 388.66 254.69C388.66 255.16 388.66 255.88 388.74 256.78C388.74 257.25 388.74 257.78 388.8 258.33C388.86 258.88 388.96 259.51 389.06 260.18C389.16 260.85 389.26 261.56 389.37 262.33C389.513 263.146 389.7 263.954 389.93 264.75C390.919 268.9 392.542 272.874 394.74 276.53C397.616 281.405 401.405 285.68 405.9 289.12L407.81 290.55C408.48 290.99 409.19 291.4 409.88 291.83C410.57 292.26 411.27 292.74 412.04 293.09L414.33 294.2L415.5 294.75L416.72 295.2L419.21 296.12C420.05 296.4 420.94 296.58 421.81 296.82C422.69 297.082 423.585 297.289 424.49 297.44C426.337 297.783 428.205 298.003 430.08 298.1C431.08 298.1 432 298.23 432.97 298.22L435.9 298.07C436.39 298.07 436.9 298.07 437.37 297.98L438.85 297.75C439.85 297.59 440.85 297.48 441.85 297.28C443.856 296.832 445.83 296.254 447.76 295.55C449.736 294.831 451.66 293.979 453.52 293C454.45 292.5 455.35 291.91 456.28 291.36C456.73 291.07 457.21 290.83 457.65 290.5L458.95 289.5C460.71 288.193 462.381 286.77 463.95 285.24L466.2 282.76L466.77 282.14L467.28 281.47L468.28 280.11L469.28 278.75L470.18 277.29L471.07 275.82L471.51 275.09L471.89 274.31C472.39 273.31 472.89 272.23 473.4 271.19L474.66 268C477.713 258.933 477.713 249.117 474.66 240.05L473.46 236.77L471.95 233.64L471.57 232.87L471.12 232.13L470.23 230.67L469.34 229.21L468.34 227.85L467.34 226.49L466.83 225.82L466.26 225.2L464 222.67C462.431 221.14 460.76 219.717 459 218.41L457.69 217.41C457.26 217.09 456.78 216.84 456.32 216.55C455.4 216 454.5 215.41 453.57 214.91C451.703 213.937 449.772 213.091 447.79 212.38C445.861 211.674 443.887 211.1 441.88 210.66C440.88 210.45 439.88 210.34 438.88 210.18L437.41 209.95C436.91 209.89 436.41 209.89 435.93 209.86L433 209.72C432 209.72 431.07 209.8 430.11 209.83C428.235 209.927 426.367 210.147 424.52 210.49C423.618 210.64 422.726 210.847 421.85 211.11C420.97 211.35 420.09 211.53 419.24 211.81L416.75 212.73L415.53 213.18L414.36 213.73L412 214.86C411.23 215.21 410.56 215.71 409.85 216.12C409.14 216.53 408.44 216.96 407.77 217.4L405.87 218.83C401.366 222.266 397.569 226.541 394.69 231.42C392.485 235.074 390.859 239.048 389.87 243.2C389.68 244.06 389.4 244.84 389.31 245.62C389.22 246.4 389.09 247.1 389 247.77C388.91 248.44 388.79 249.05 388.74 249.62C388.69 250.19 388.74 250.7 388.68 251.17C388.68 252.08 388.62 252.77 388.6 253.26C388.58 253.75 388.63 254 388.63 254Z" fill="#797677"/>
<path d="M431.52 234.83L426.75 244.5C426.658 244.678 426.525 244.832 426.361 244.949C426.198 245.066 426.009 245.141 425.81 245.17L415.14 246.72C414.91 246.754 414.695 246.851 414.518 247.001C414.341 247.151 414.21 247.347 414.139 247.568C414.068 247.789 414.061 248.025 414.118 248.25C414.174 248.475 414.293 248.679 414.46 248.84L422.18 256.36C422.322 256.502 422.428 256.676 422.489 256.867C422.55 257.059 422.564 257.262 422.53 257.46L420.71 268.08C420.67 268.308 420.695 268.543 420.782 268.758C420.869 268.973 421.014 269.159 421.202 269.296C421.389 269.432 421.611 269.513 421.842 269.53C422.073 269.547 422.305 269.498 422.51 269.39L432.05 264.39C432.227 264.296 432.424 264.247 432.625 264.247C432.825 264.247 433.023 264.296 433.2 264.39L442.75 269.39C442.954 269.5 443.185 269.549 443.417 269.533C443.648 269.517 443.87 269.435 444.057 269.298C444.244 269.161 444.389 268.974 444.474 268.759C444.56 268.543 444.582 268.308 444.54 268.08L442.72 257.46C442.688 257.261 442.703 257.058 442.766 256.866C442.829 256.675 442.936 256.501 443.08 256.36L450.8 248.84C450.963 248.677 451.078 248.472 451.132 248.247C451.186 248.023 451.177 247.788 451.106 247.568C451.034 247.349 450.903 247.153 450.728 247.003C450.552 246.854 450.338 246.756 450.11 246.72L439.44 245.17C439.243 245.141 439.055 245.064 438.893 244.948C438.732 244.831 438.6 244.678 438.51 244.5L433.74 234.83C433.637 234.624 433.479 234.45 433.283 234.328C433.086 234.207 432.86 234.143 432.63 234.143C432.399 234.143 432.173 234.207 431.977 234.328C431.781 234.45 431.623 234.624 431.52 234.83Z" fill="#FEF4CF"/>
<path d="M431.52 234.83C431.52 234.83 431.52 234.73 431.72 234.57C431.86 234.423 432.035 234.314 432.228 234.253C432.422 234.191 432.627 234.179 432.827 234.218C433.026 234.257 433.212 234.345 433.368 234.475C433.524 234.605 433.645 234.771 433.72 234.96L434.65 236.9C435.35 238.36 436.21 240.13 437.21 242.19L437.99 243.79C438.12 244.07 438.26 244.35 438.4 244.63C438.579 244.953 438.877 245.193 439.23 245.3C440.56 245.52 441.89 245.7 443.32 245.92L447.8 246.59L450.17 246.95C450.342 246.984 450.503 247.062 450.635 247.178C450.768 247.294 450.867 247.442 450.924 247.608C450.981 247.774 450.993 247.953 450.959 248.125C450.925 248.297 450.846 248.458 450.73 248.59L443 256.13C442.79 256.314 442.634 256.552 442.551 256.819C442.469 257.085 442.461 257.369 442.53 257.64L442.77 259.08C442.94 260.08 443.1 261.02 443.27 262C443.6 264 443.95 266 444.27 268C444.323 268.206 444.31 268.424 444.23 268.622C444.151 268.82 444.011 268.987 443.83 269.1C443.656 269.216 443.447 269.266 443.24 269.24C443.014 269.212 442.798 269.129 442.61 269L439.78 267.52L434.01 264.52L433.27 264.13C432.958 263.983 432.606 263.944 432.27 264.02C431.986 264.106 431.714 264.227 431.46 264.38L430.74 264.76L427.87 266.27L422.28 269.21C422.138 269.268 421.985 269.292 421.832 269.282C421.679 269.271 421.53 269.225 421.398 269.148C421.265 269.07 421.152 268.964 421.068 268.836C420.983 268.708 420.929 268.562 420.91 268.41C420.911 268.178 420.938 267.946 420.99 267.72C421.16 266.72 421.33 265.72 421.5 264.72C421.83 262.72 422.16 260.83 422.5 258.94L422.74 257.54C422.789 257.271 422.765 256.993 422.67 256.736C422.575 256.479 422.412 256.253 422.2 256.08C421.54 255.43 420.88 254.8 420.2 254.17C418.9 252.91 417.643 251.687 416.43 250.5L414.63 248.76C414.489 248.66 414.376 248.526 414.303 248.369C414.23 248.213 414.198 248.04 414.211 247.868C414.224 247.696 414.281 247.53 414.378 247.387C414.474 247.243 414.606 247.127 414.76 247.05C415.103 246.919 415.464 246.842 415.83 246.82L417 246.65L419.19 246.32L423.26 245.71L425.14 245.43C425.45 245.37 425.72 245.36 426.05 245.27C426.365 245.168 426.631 244.955 426.8 244.67L429.38 239.37L431 236L431.4 235.13C431.49 234.93 431.53 234.82 431.53 234.82C431.462 234.906 431.404 235 431.36 235.1C431.24 235.32 431.09 235.6 430.91 235.96C430.5 236.75 429.91 237.86 429.22 239.27L426.57 244.51C426.444 244.736 426.242 244.909 426 245C425.76 245.07 425.42 245.09 425.13 245.14L423.26 245.4L419.18 245.98L416.99 246.29L415.85 246.45C415.438 246.471 415.033 246.558 414.65 246.71C414.448 246.826 414.276 246.989 414.15 247.184C414.023 247.38 413.945 247.604 413.923 247.836C413.9 248.068 413.934 248.302 414.02 248.518C414.107 248.735 414.244 248.927 414.42 249.08L416.2 250.83L419.96 254.51L421.96 256.44C422.113 256.552 422.231 256.706 422.301 256.883C422.37 257.06 422.387 257.253 422.35 257.44L422.11 258.84C421.783 260.72 421.45 262.647 421.11 264.62C420.94 265.62 420.77 266.62 420.59 267.62C420.53 267.892 420.503 268.171 420.51 268.45C420.535 268.764 420.666 269.06 420.88 269.29C421.087 269.525 421.364 269.687 421.669 269.754C421.975 269.82 422.294 269.787 422.58 269.66L428.21 266.72L431 265.21L431.72 264.83C431.934 264.701 432.162 264.597 432.4 264.52C432.612 264.474 432.833 264.499 433.03 264.59L433.76 264.97L439.53 267.97L442.36 269.46C442.613 269.617 442.895 269.719 443.19 269.76C443.51 269.786 443.83 269.705 444.1 269.53C444.365 269.362 444.57 269.116 444.688 268.825C444.807 268.535 444.832 268.215 444.76 267.91C444.407 265.87 444.073 263.87 443.76 261.91C443.59 260.91 443.42 259.91 443.25 258.99L443.01 257.55C442.946 257.357 442.943 257.15 443 256.955C443.057 256.76 443.172 256.588 443.33 256.46L451.09 248.85C451.242 248.657 451.344 248.428 451.384 248.185C451.424 247.942 451.402 247.692 451.32 247.46C451.243 247.234 451.112 247.031 450.937 246.869C450.763 246.707 450.551 246.59 450.32 246.53L447.92 246.18L443.44 245.55L439.38 244.97C439.111 244.89 438.882 244.712 438.74 244.47L438.33 243.64L437.53 242.05L434.89 236.8C434.52 236.08 434.2 235.44 433.89 234.88C433.78 234.626 433.594 234.412 433.358 234.269C433.121 234.126 432.846 234.06 432.57 234.08C432.403 234.092 432.241 234.138 432.093 234.215C431.945 234.292 431.814 234.4 431.71 234.53C431.622 234.612 431.556 234.715 431.52 234.83Z" fill="#263238"/>
</svg>
